<svg version="1.1" xmlns="http://www.w3.org/2000/svg" viewBox="0 0 250 250"><desc>Created with Snap</desc><defs></defs><g transform="matrix(0.0181,0,0,0.0181,64.2788,148.3876)"><g transform="matrix(33.1809,0,0,33.1809,-3286.684,-7926.2837)">
<g id="gSktkap5rx1p">
	<g>
		<g>
			<g>
				<path d="M388.32025,216.49532c-0.19257,3.17145,1.66949,6.00197,4.49582,6.34879
					c2.78461,0.34386,5.49353-2.09171,5.70404-5.46553c0.26233-3.36794-1.83084-6.21516-4.655-6.35762
					C391.04321,210.87752,388.56564,213.32977,388.32025,216.49532z" fill="#143d59" style=""></path>
				<path d="M351.07425,287.23575c1.46536-2.54462,4.67514-3.52515,7.14114-2.21649c2.52744,1.34402,3.28909,4.62256,1.7218,7.34503
					L351.07425,287.23575z" fill="#143d59" style=""></path>
				<path d="M325.79657,272.6145c1.2153-2.11432,4.23398-2.73718,6.69803-1.42755c2.52914,1.34402,3.48068,4.26395,2.16342,6.55508
					L325.79657,272.6145z" fill="#143d59" style=""></path>
				<path d="M388.32025,216.49532c-0.19257,3.17145,1.66949,6.00197,4.49582,6.34879
					c2.78461,0.34386,5.49353-2.09171,5.70404-5.46553c0.26233-3.36794-1.83084-6.21516-4.655-6.35762
					C391.04321,210.87752,388.56564,213.32977,388.32025,216.49532z" fill="#143d59" style=""></path>
				<path d="M382.63931,248.94954c-0.86212,3.06041,0.61923,6.2122,3.32056,7.04141c2.70328,0.82921,5.6539-1.13771,6.56982-4.39659
					c0.93286-3.26183-0.79361-6.47256-3.51654-7.09447C386.22513,243.86128,383.51938,245.88715,382.63931,248.94954z" fill="#143d59" style=""></path>
				<path d="M371.3418,279.95459c-1.26541,2.91895-0.5239,6.20142,2.02884,7.50809c2.47879,1.27133,5.89337-0.06876,7.24625-3.1734
					c1.40152-3.08203,0.41193-6.48239-2.19165-7.58572C375.82364,275.60123,372.65686,277.05923,371.3418,279.95459z" fill="#143d59" style=""></path>
				<path d="M343.03046,225.27869c-0.43719,2.39626,1.4924,4.8279,4.21802,5.40952c2.80475,0.59735,5.39282-1.04338,5.86591-3.64008
					c0.23135-1.29393-0.12357-2.55936-0.88815-3.53693c-0.8049-0.9864-2.01041-1.68396-3.40921-1.8844
					c-1.39978-0.20042-2.72662,0.12379-3.74667,0.78894C344.00925,223.07498,343.24637,224.07318,343.03046,225.27869z" fill="#143d59" style=""></path>
				<path d="M336.54047,249.71292c-0.87613,2.27345,0.50644,4.96643,3.13113,6.03143c2.61462,1.06207,5.54169-0.06189,6.4888-2.5289
					c0.8432-2.50336-0.64993-5.23563-3.34067-6.10611C340.13043,246.23888,337.31366,247.40311,336.54047,249.71292z" fill="#143d59" style=""></path>
				<path d="M371.793,230.3237c-0.52243,2.88358,1.32538,5.70918,4.05249,6.29082c2.80325,0.59636,5.47461-1.43639,6.03314-4.52136
					c0.27411-1.53758-0.0452-3.02408-0.78525-4.16277c-0.78033-1.14557-1.97159-1.94237-3.36938-2.14279
					c-1.40079-0.20042-2.74237,0.22302-3.78748,1.04733C372.85065,227.65431,372.05188,228.87357,371.793,230.3237z" fill="#143d59" style=""></path>
				<path d="M363.97913,259.70572c-1.04587,2.74011,0.18689,5.8074,2.81308,6.87341c2.61288,1.06107,5.69125-0.43622,6.80832-3.3699
					c1.01343-2.97101-0.35492-6.08743-3.04422-6.95694C367.86554,255.38182,364.92279,256.92825,363.97913,259.70572z" fill="#143d59" style=""></path>
				<path d="M359.2276,213.97527c-0.15082,2.68512,1.75888,5.11577,4.5845,5.46356c2.78653,0.34288,5.44659-1.69379,5.61508-4.58031
					c0.21985-2.87965-1.89346-5.33093-4.71933-5.47339C361.88644,209.24168,359.43024,211.29703,359.2276,213.97527z" fill="#143d59" style=""></path>
				<path d="M354.42892,241.40508c-0.73416,2.58098,0.86411,5.34665,3.56494,6.17587
					c2.70499,0.82921,5.53772-0.7516,6.32544-3.53104c0.80389-2.78041-1.01245-5.59914-3.73712-6.22203
					C357.79489,237.18927,355.18027,238.82411,354.42892,241.40508z" fill="#143d59" style=""></path>
				<path d="M344.88635,267.59106c-1.05542,2.46899-0.13263,5.39481,2.41962,6.70053
					c2.48026,1.27231,5.71262,0.28885,6.85547-2.36581c1.19125-2.63208,0.04446-5.66202-2.56058-6.76633
					C348.99976,264.0571,345.99115,265.14471,344.88635,267.59106z" fill="#143d59" style=""></path>
				<path d="M330.10104,211.45226c-0.10855,2.19682,1.85248,4.22957,4.67807,4.57738
					c2.78384,0.3419,5.39505-1.29491,5.52179-3.69412c0.17706-2.39136-1.95663-4.44572-4.77979-4.58818
					C332.69971,207.60487,330.2612,209.26231,330.10104,211.45226z" fill="#143d59" style=""></path>
				<path d="M326.18585,233.85277c-0.60568,2.09956,1.11316,4.4801,3.814,5.30931c2.7023,0.82921,5.4169-0.36646,6.07639-2.66447
					c0.67496-2.29999-1.23129-4.7267-3.95349-5.34862C329.33545,230.51038,326.80801,231.75223,326.18585,233.85277z" fill="#143d59" style=""></path>
				<path d="M318.40021,255.21382c-0.84543,2.019,0.26282,4.58818,2.81531,5.89388c2.47757,1.27133,5.52692,0.64551,6.46002-1.55917
					c0.98077-2.18307-0.32346-4.84265-2.92606-5.94499C322.14838,252.50119,319.29477,253.21742,318.40021,255.21382z" fill="#143d59" style=""></path>
				<path d="M374.47223,200.00148c-0.07025,2.93269,2.16071,5.38988,4.98706,5.49106
					c2.82437,0.10022,5.18182-2.35696,5.25256-5.49106H374.47223z" fill="#143d59" style=""></path>
				<path d="M345.27051,200.00049c-0.07025,2.44244,2.173,4.49681,4.99762,4.59702c2.82635,0.10022,5.16956-1.95316,5.2403-4.59702
					H345.27051z" fill="#143d59" style=""></path>
			</g>
			<g>
				<path d="M354.82193,308.48083c-1.84067,2.5918-1.51056,6.0737,0.73807,7.77634c2.25873,1.7095,5.6839,0.86359,7.64221-1.89423
					c1.99295-2.73227,1.52261-6.3085-0.84909-7.84802C359.98312,304.97635,356.69846,305.9166,354.82193,308.48083z" fill="#143d59" style=""></path>
				<path d="M287.22568,351.08014c1.27844-0.73587,2.72614-0.90683,4.05075-0.60324
					c1.30106,0.26822,2.48987,1.02768,3.23581,2.22824c0.74545,1.20059,0.8992,2.62128,0.52463,3.9584
					c-0.39468,1.30081-1.3288,2.49945-2.68387,3.28052L287.22568,351.08014z" fill="#143d59" style=""></path>
				<path d="M272.59927,325.80588c1.06329-0.61111,2.31668-0.66711,3.50156-0.27902c1.16129,0.35269,2.2634,1.16522,3.00885,2.36581
					c0.74594,1.20157,0.98566,2.56818,0.75085,3.82086c-0.25519,1.2153-0.99475,2.29898-2.13467,2.95428L272.59927,325.80588z" fill="#143d59" style=""></path>
				<path d="M354.82193,308.48083c-1.84067,2.5918-1.51056,6.0737,0.73807,7.77634c2.25873,1.7095,5.6839,0.86359,7.64221-1.89423
					c1.99295-2.73227,1.52261-6.3085-0.84909-7.84802C359.98312,304.97635,356.69846,305.9166,354.82193,308.48083z" fill="#143d59" style=""></path>
				<path d="M333.6785,333.71384c-2.29041,2.19684-2.59473,5.65024-0.67004,7.71933c1.92615,2.0701,5.47412,1.86182,7.90845-0.47845
					c2.34665-2.43851,2.55225-5.98526,0.48288-7.91092C339.33118,331.11813,335.88196,331.41977,333.6785,333.71384z" fill="#143d59" style=""></path>
				<path d="M308.41479,354.86954c-2.56378,1.87558-3.51138,5.15704-1.97183,7.52972
					c1.53708,2.36975,5.11871,2.84528,7.84952,0.85278c2.75757-1.95612,3.60052-5.38397,1.89496-7.63876
					C314.48282,353.3595,311.00583,353.03036,308.41479,354.86954z" fill="#143d59" style=""></path>
				<path d="M311.25098,293.3782c-1.60071,1.84018-1.19275,4.87799,0.90436,6.77319c2.09833,1.89618,5.202,1.80875,6.93359-0.18668
					c1.73825-1.99149,1.177-5.15112-1.02768-6.87146C315.80917,291.33365,312.8588,291.54193,311.25098,293.3782z" fill="#143d59" style=""></path>
				<path d="M293.34064,311.28387c-1.84042,1.60437-2.04749,4.55869-0.28958,6.81052
					c1.72031,2.20569,4.87726,2.76471,6.87341,1.02966c1.99664-1.73309,2.08163-4.83478,0.18643-6.93436
					C298.21667,310.0921,295.18179,309.68243,293.34064,311.28387z" fill="#143d59" style=""></path>
				<path d="M333.60703,312.16513c-1.91583,2.21552-1.77362,5.55005,0.32471,7.44623c2.09711,1.8952,5.4675,1.51202,7.5145-0.8587
					c2.05386-2.36679,1.73849-5.84082-0.46497-7.56015C338.72769,309.43188,335.5307,309.95358,333.60703,312.16513z" fill="#143d59" style=""></path>
				<path d="M312.11996,333.64606c-2.21597,1.92075-2.73645,5.12164-0.97757,7.37448
					c1.71933,2.20468,5.19043,2.5181,7.56238,0.46765c2.37219-2.04846,2.75293-5.41739,0.8587-7.51498
					C317.66827,331.87463,314.33694,331.72925,312.11996,333.64606z" fill="#143d59" style=""></path>
				<path d="M330.91919,291.70602c-1.55795,2.18896-0.98837,5.35156,1.2598,7.05319c2.26019,1.71051,5.44489,1.1839,7.12051-1.17209
					c1.71024-2.32947,1.02203-5.56967-1.35117-7.11118C335.57886,288.93738,332.51303,289.54358,330.91919,291.70602z" fill="#143d59" style=""></path>
				<path d="M313.03244,313.06213c-1.94406,1.85101-1.95807,5.03226-0.03391,7.10037c1.9274,2.07108,5.1843,2.13394,7.27231,0.1405
					c1.99936-2.0907,1.93402-5.34763-0.13681-7.27524C318.06616,311.10309,314.88834,311.11584,313.03244,313.06213z" fill="#143d59" style=""></path>
				<path d="M291.65002,330.95898c-2.16144,1.59454-2.77402,4.65594-1.23495,7.02866
					c1.53806,2.37167,4.78415,3.06433,7.11264,1.35483c2.35449-1.67413,2.87939-4.8613,1.17258-7.11807
					C296.99619,329.97159,293.83801,329.40274,291.65002,330.95898z" fill="#143d59" style=""></path>
				<path d="M306.98898,274.91153c-1.27527,1.78516-0.46252,4.63043,1.78564,6.33304c2.258,1.70856,5.20172,1.50024,6.59439-0.45193
					c1.42731-1.92664,0.52072-4.83182-1.85001-6.37137C311.14954,272.88272,308.29959,273.15192,306.98898,274.91153z" fill="#143d59" style=""></path>
				<path d="M292.36258,292.38687c-1.5975,1.50418-1.31824,4.41525,0.60593,6.48337c1.92566,2.0701,4.89102,2.40414,6.63248,0.75751
					c1.65155-1.7439,1.31503-4.70901-0.75357-6.63467C296.77905,291.06741,293.87067,290.78738,292.36258,292.38687z" fill="#143d59" style=""></path>
				<path d="M274.86584,307.02188c-1.75864,1.31061-2.03372,4.15686-0.49466,6.52954
					c1.53659,2.36874,4.44669,3.28049,6.37234,1.85297c1.95096-1.3912,2.15729-4.33765,0.45218-6.59244
					C279.49161,306.55911,276.65054,305.74759,274.86584,307.02188z" fill="#143d59" style=""></path>
				<path d="M351.07648,287.23181c-0.7359,1.27917-0.90683,2.72833-0.60522,4.0527c0.26749,1.3028,1.02621,2.49255,2.22754,3.23825
					c1.20035,0.74573,2.62149,0.89801,3.95938,0.52271c1.30154-0.39496,2.50089-1.33029,3.28122-2.68512L351.07648,287.23181z" fill="#143d59" style=""></path>
				<path d="M325.80099,272.6076c-0.61087,1.06207-0.66614,2.3157-0.27878,3.50058c0.35269,1.16129,1.16495,2.26364,2.3653,3.00934
					c1.20132,0.7457,2.5687,0.98541,3.82111,0.75061c1.21558-0.25446,2.29877-0.99524,2.95407-2.13394L325.80099,272.6076z" fill="#143d59" style=""></path>
			</g>
			<g>
				<path d="M279.88043,371.37518c-2.89709,1.31653-4.35754,4.48404-3.2562,7.08563c1.10211,2.60455,4.50296,3.5939,7.5867,2.19193
					c3.10635-1.3519,4.44598-4.76208,3.17563-7.24283C286.08157,370.8584,282.80084,370.11075,279.88043,371.37518z" fill="#143d59" style=""></path>
				<path d="M199.99388,374.47195c2.93294-0.06973,5.38545,2.16147,5.48592,4.98804
					c0.10045,2.82367-2.35207,5.18161-5.48616,5.25137L199.99388,374.47195z" fill="#143d59" style=""></path>
				<path d="M199.99094,345.27075c2.4444-0.06976,4.49728,2.17322,4.5975,4.99786c0.1002,2.82559-1.95268,5.1698-4.59801,5.23956
					L199.99094,345.27075z" fill="#143d59" style=""></path>
				<path d="M279.88043,371.37518c-2.89709,1.31653-4.35754,4.48404-3.2562,7.08563c1.10211,2.60455,4.50296,3.5939,7.5867,2.19193
					c3.10635-1.3519,4.44598-4.76208,3.17563-7.24283C286.08157,370.8584,282.80084,370.11075,279.88043,371.37518z" fill="#143d59" style=""></path>
				<path d="M248.90117,382.65305c-3.05724,0.87442-5.08604,3.58411-4.44843,6.3714c0.62192,2.72342,3.83461,4.44669,7.09079,3.5202
					c3.26601-0.91861,5.23-3.86801,4.40102-6.57178C255.11656,383.27203,251.96822,381.78946,248.90117,382.65305z" fill="#143d59" style=""></path>
				<path d="M216.41405,388.32687c-3.16457,0.24463-5.62027,2.72244-5.47879,5.54413
					c0.14146,2.82462,2.99139,4.9173,6.35811,4.65598c3.37161-0.21124,5.80717-2.91208,5.46454-5.70035
					C222.41257,390.00397,219.58401,388.13333,216.41405,388.32687z" fill="#143d59" style=""></path>
				<path d="M249.66504,336.55615c-2.30833,0.77322-3.47502,3.59097-2.60626,6.28098
					c0.86949,2.69101,3.60446,4.18341,6.10634,3.34042c2.4675-0.94119,3.59023-3.87292,2.52989-6.4863
					C254.63025,337.06506,251.93948,335.68567,249.66504,336.55615z" fill="#143d59" style=""></path>
				<path d="M225.22981,343.03952c-1.20697,0.21518-2.20468,0.97955-2.86514,2.03964
					c-0.66588,1.01489-0.99083,2.34616-0.79089,3.74423c0.19994,1.40002,0.89676,2.60257,1.8839,3.41214
					c0.97781,0.76535,2.243,1.12003,3.53717,0.88815c2.5994-0.47256,4.23694-3.06238,3.64131-5.86343
					C230.05551,344.53094,227.62706,342.60233,225.22981,343.03952z" fill="#143d59" style=""></path>
				<path d="M259.64825,363.99875c-2.77527,0.94318-4.32561,3.88669-3.45612,6.5777c0.86874,2.69,3.98788,4.05762,6.9567,3.04468
					c2.93466-1.11118,4.43073-4.19321,3.37112-6.8056C265.45447,364.18835,262.38962,362.95828,259.64825,363.99875z" fill="#143d59" style=""></path>
				<path d="M230.26453,371.80356c-1.45087,0.25839-2.67012,1.05814-3.49098,2.14377
					c-0.82529,1.04044-1.24922,2.38544-1.04929,3.78448c0.20018,1.39908,0.99574,2.58688,2.14229,3.37189
					c1.13844,0.74176,2.62518,1.06009,4.16325,0.78598c3.08743-0.55804,5.11748-3.23041,4.5226-6.02948
					C235.97101,373.12793,233.14983,371.28186,230.26453,371.80356z" fill="#143d59" style=""></path>
				<path d="M267.52872,344.91507c-2.44785,1.10529-3.53815,4.11462-2.43704,6.71625
					c1.10284,2.60553,4.13327,3.75208,6.76755,2.56033c2.65637-1.14166,3.63959-4.37009,2.36801-6.85278
					C272.92276,344.78833,269.99915,343.85989,267.52872,344.91507z" fill="#143d59" style=""></path>
				<path d="M241.36458,354.44022c-2.57729,0.7457-4.21434,3.36499-3.57648,6.15131c0.62192,2.72537,3.44261,4.53903,6.21884,3.7403
					c2.78484-0.78894,4.36368-3.62143,3.53423-6.32718C246.71318,355.3038,243.95021,353.70532,241.36458,354.44022z" fill="#143d59" style=""></path>
				<path d="M213.90627,359.23273c-2.67676,0.20239-4.73555,2.65958-4.59407,5.48029
					c0.14172,2.82657,2.59448,4.93988,5.47339,4.71982c2.88504-0.16898,4.92197-2.82169,4.57933-5.61093
					C219.01933,360.99924,216.58966,359.08145,213.90627,359.23273z" fill="#143d59" style=""></path>
				<path d="M255.16251,318.42352c-1.99763,0.89505-2.71582,3.75012-1.61472,6.35175
					c1.10185,2.60257,3.76117,3.90631,5.94522,2.92484c2.2059-0.93237,2.83224-3.97708,1.56189-6.45685
					C259.75067,318.69174,257.18246,317.57861,255.16251,318.42352z" fill="#143d59" style=""></path>
				<path d="M233.81914,326.19592c-2.0966,0.617-3.34042,3.14786-2.70255,5.93417c0.62117,2.72342,3.04936,4.6265,5.34492,3.95642
					c2.30318-0.66119,3.49638-3.37479,2.66792-6.07761C238.30121,327.30807,235.92311,325.58875,233.81914,326.19592z" fill="#143d59" style=""></path>
				<path d="M211.39578,330.10519c-2.18846,0.16016-3.84959,2.59964-3.70811,5.42133
					c0.14148,2.82266,2.19682,4.9566,4.58719,4.77878c2.39774-0.12772,4.03554-2.73129,3.69388-5.51859
					C215.62265,331.96405,213.59163,329.99518,211.39578,330.10519z" fill="#143d59" style=""></path>
				<path d="M287.22937,351.07816c-2.54462,1.46588-3.53006,4.67661-2.22064,7.14264
					c1.34305,2.52792,4.62625,3.28836,7.34845,1.72031L287.22937,351.07816z" fill="#143d59" style=""></path>
				<path d="M272.60715,325.80096c-2.11331,1.21533-2.73767,4.23349-1.42877,6.69754
					c1.34427,2.52991,4.26517,3.4819,6.55557,2.16443L272.60715,325.80096z" fill="#143d59" style=""></path>
			</g>
			<g>
				<path d="M183.5047,388.32001c-3.17194-0.19257-6.00221,1.6702-6.34927,4.49582
					c-0.34361,2.78531,2.09195,5.49402,5.46553,5.70425c3.36818,0.26233,6.2159-1.83035,6.3586-4.65497
					C189.12227,391.04343,186.67049,388.56561,183.5047,388.32001z" fill="#143d59" style=""></path>
				<path d="M112.76404,351.07425c2.54462,1.46585,3.52587,4.6756,2.21622,7.14163
					c-1.34329,2.52692-4.62207,3.28836-7.34427,1.72128L112.76404,351.07425z" fill="#143d59" style=""></path>
				<path d="M127.38503,325.79703c2.11478,1.21533,2.73743,4.23349,1.42828,6.69757c-1.34427,2.5289-4.2637,3.4809-6.55582,2.16342
					L127.38503,325.79703z" fill="#143d59" style=""></path>
				<path d="M183.5047,388.32001c-3.17194-0.19257-6.00221,1.6702-6.34927,4.49582
					c-0.34361,2.78531,2.09195,5.49402,5.46553,5.70425c3.36818,0.26233,6.2159-1.83035,6.3586-4.65497
					C189.12227,391.04343,186.67049,388.56561,183.5047,388.32001z" fill="#143d59" style=""></path>
				<path d="M151.05049,382.63931c-3.06042-0.86163-6.21271,0.61896-7.04143,3.32077
					c-0.82945,2.70279,1.13722,5.65417,4.39635,6.56982c3.26207,0.93237,6.47256-0.79382,7.09497-3.51627
					C156.13899,386.22534,154.11311,383.51959,151.05049,382.63931z" fill="#143d59" style=""></path>
				<path d="M120.04519,371.3418c-2.91846-1.26544-6.20116-0.52368-7.5081,2.02881c-1.27059,2.47879,0.06926,5.89389,3.1734,7.24677
					c3.08204,1.401,6.4824,0.41165,7.58572-2.19193C124.39854,375.82385,122.9408,372.65732,120.04519,371.3418z" fill="#143d59" style=""></path>
				<path d="M174.72084,343.0307c-2.39552-0.43723-4.8279,1.49237-5.40854,4.21777c-0.5976,2.80496,1.04242,5.39282,3.64009,5.86636
					c1.29343,0.2309,2.55861-0.12378,3.53667-0.88815c0.98616-0.80563,1.68398-2.01114,1.8844-3.40921
					c0.20067-1.40002-0.12453-2.72736-0.78893-3.74716C176.92479,344.00925,175.92709,343.24683,174.72084,343.0307z" fill="#143d59" style=""></path>
				<path d="M150.2876,336.54044c-2.27371-0.87637-4.96692,0.50696-6.03218,3.13116
					c-1.06181,2.61438,0.0619,5.54214,2.52866,6.48926c2.5036,0.84299,5.2366-0.65039,6.10709-3.3414
					C153.76089,340.1304,152.5974,337.31366,150.2876,336.54044z" fill="#143d59" style=""></path>
				<path d="M169.67632,371.79276c-2.88358-0.5217-5.70894,1.32535-6.29031,4.0527
					c-0.59686,2.80301,1.43613,5.47437,4.52136,6.03342c1.53758,0.27411,3.02406-0.0452,4.16226-0.785
					c1.14607-0.78107,1.94261-1.97183,2.14304-3.3699c0.20067-1.40103-0.22327-2.7421-1.04732-3.78745
					C172.34521,372.85086,171.12645,372.05212,169.67632,371.79276z" fill="#143d59" style=""></path>
				<path d="M140.2948,363.9791c-2.74062-1.04535-5.80792,0.18668-6.8739,2.81284c-1.06108,2.6134,0.43597,5.6915,3.36989,6.80856
					c2.97054,1.01392,6.08745-0.35468,6.95718-3.0437C144.61844,367.86578,143.07153,364.92325,140.2948,363.9791z" fill="#143d59" style=""></path>
				<path d="M186.02475,359.22781c-2.68486-0.15128-5.11601,1.75864-5.46332,4.58426
					c-0.34337,2.78632,1.69305,5.44687,4.57983,5.61487c2.88013,0.22006,5.33116-1.89325,5.47412-4.71884
					C190.75809,361.88641,188.70274,359.43021,186.02475,359.22781z" fill="#143d59" style=""></path>
				<path d="M158.5947,354.42941c-2.58023-0.73392-5.34641,0.86359-6.17513,3.56442c-0.8302,2.70477,0.7511,5.53824,3.53004,6.3252
					c2.78114,0.80466,5.60013-1.01196,6.22252-3.73636C162.81076,357.79538,161.17641,355.18002,158.5947,354.42941z" fill="#143d59" style=""></path>
				<path d="M132.40845,344.8866c-2.46872-1.05518-5.39405-0.13263-6.7005,2.41983c-1.27182,2.47977-0.2886,5.71213,2.36606,6.85477
					c2.63254,1.19174,5.66251,0.0452,6.76657-2.56033C135.94292,349.00021,134.85481,345.99091,132.40845,344.8866z" fill="#143d59" style=""></path>
				<path d="M188.548,330.10126c-2.19731-0.10904-4.22957,1.85199-4.57736,4.67758
					c-0.34265,2.78436,1.29466,5.39578,3.69362,5.52252c2.3916,0.17685,4.44548-1.95709,4.58842-4.77975
					C192.39539,332.69992,190.73721,330.26141,188.548,330.10126z" fill="#143d59" style=""></path>
				<path d="M166.14749,326.1861c-2.09955-0.6062-4.48035,1.11316-5.30907,3.81396
					c-0.82921,2.70184,0.36598,5.41641,2.66399,6.07663c2.29974,0.67499,4.72672-1.23203,5.34837-3.95349
					C169.48964,329.33591,168.24779,326.80801,166.14749,326.1861z" fill="#143d59" style=""></path>
				<path d="M144.78621,318.40094c-2.01875-0.84592-4.58794,0.26233-5.89413,2.81479
					c-1.27084,2.47781-0.645,5.52646,1.55943,6.45981c2.18307,0.9805,4.84215-0.32324,5.94522-2.92581
					C147.49907,322.1481,146.78259,319.29498,144.78621,318.40094z" fill="#143d59" style=""></path>
				<path d="M199.99831,374.47195c-2.93271-0.06973-5.38988,2.16147-5.49059,4.98706
					c-0.10046,2.82465,2.35648,5.18259,5.49059,5.25333V374.47195z" fill="#143d59" style=""></path>
				<path d="M200.00002,345.27075c-2.44318-0.07074-4.49754,2.17322-4.59775,4.99786
					c-0.10022,2.82559,1.95366,5.16882,4.59775,5.24054V345.27075z" fill="#143d59" style=""></path>
			</g>
			<g>
				<path d="M91.51868,354.82239c-2.59153-1.84116-6.07319-1.51105-7.77534,0.73785c-1.71,2.2587-0.86409,5.68362,1.89422,7.64172
					c2.73203,1.99344,6.30776,1.52283,7.84755-0.84888C95.02392,359.98337,94.08393,356.69891,91.51868,354.82239z" fill="#143d59" style=""></path>
				<path d="M48.91964,287.22592c0.73588,1.2782,0.90658,2.72638,0.60373,4.05075c-0.26822,1.30081-1.02743,2.48959-2.22875,3.23529
					c-1.20059,0.7457-2.62101,0.89996-3.95816,0.52466c-1.30056-0.39398-2.49992-1.32831-3.28-2.68317L48.91964,287.22592z" fill="#143d59" style=""></path>
				<path d="M74.19439,272.59976c0.6111,1.06302,0.66685,2.31668,0.27853,3.50156c-0.35246,1.16129-1.16498,2.26263-2.36556,3.00833
					c-1.20132,0.7457-2.5687,0.98544-3.82086,0.75061c-1.21484-0.25446-2.29875-0.99426-2.95406-2.13394L74.19439,272.59976z" fill="#143d59" style=""></path>
				<path d="M91.51868,354.82239c-2.59153-1.84116-6.07319-1.51105-7.77534,0.73785c-1.71,2.2587-0.86409,5.68362,1.89422,7.64172
					c2.73203,1.99344,6.30776,1.52283,7.84755-0.84888C95.02392,359.98337,94.08393,356.69891,91.51868,354.82239z" fill="#143d59" style=""></path>
				<path d="M66.28593,333.67847c-2.19707-2.29016-5.65023-2.59473-7.71884-0.67004
					c-2.07033,1.92664-1.86155,5.47437,0.47871,7.90897c2.43777,2.34613,5.98452,2.55148,7.91092,0.48239
					C68.88238,339.33167,68.57977,335.88217,66.28593,333.67847z" fill="#143d59" style=""></path>
				<path d="M45.13071,308.41501c-1.87604-2.56424-5.15703-3.51135-7.5302-1.97183
					c-2.36974,1.53662-2.84501,5.11871-0.85255,7.84903c1.95612,2.75781,5.38374,3.6008,7.63902,1.8952
					C46.64054,314.48282,46.96942,311.00583,45.13071,308.41501z" fill="#143d59" style=""></path>
				<path d="M106.62134,311.25143c-1.83994-1.60144-4.87752-1.19272-6.77247,0.9039
					c-1.89594,2.09857-1.80923,5.20221,0.18593,6.93335c1.99223,1.73898,5.15187,1.177,6.87219-1.02768
					C108.66637,315.80914,108.45759,312.85876,106.62134,311.25143z" fill="#143d59" style=""></path>
				<path d="M88.71616,293.34085c-1.60463-1.84018-4.55846-2.04749-6.8103-0.28983c-2.2064,1.72031-2.76469,4.87701-1.02988,6.87341
					c1.73285,1.9964,4.83502,2.08188,6.93409,0.18668C89.90766,298.21689,90.31784,295.18201,88.71616,293.34085z" fill="#143d59" style=""></path>
				<path d="M87.83463,333.60675c-2.21573-1.91583-5.54977-1.77338-7.44595,0.3252c-1.89496,2.09662-1.51253,5.4675,0.85844,7.51401
					c2.36729,2.05435,5.84108,1.73898,7.56042-0.46472C90.56813,338.72742,90.04619,335.53046,87.83463,333.60675z" fill="#143d59" style=""></path>
				<path d="M66.35348,312.11996c-1.92001-2.21552-5.12093-2.73621-7.374-0.97757c-2.20517,1.71933-2.51785,5.19043-0.46717,7.56213
					c2.04798,2.37268,5.41665,2.7529,7.51449,0.85867C68.12586,317.668,68.27054,314.3374,66.35348,312.11996z" fill="#143d59" style=""></path>
				<path d="M108.29376,330.91968c-2.18847-1.55823-5.35107-0.98837-7.05297,1.25952
					c-1.71098,2.2597-1.1834,5.44492,1.17161,7.12003c2.32995,1.71051,5.5704,1.02277,7.11143-1.35089
					C111.06214,335.57858,110.45669,332.51324,108.29376,330.91968z" fill="#143d59" style=""></path>
				<path d="M86.93763,313.03268c-1.85075-1.94434-5.03177-1.9581-7.10013-0.03439
					c-2.07131,1.92761-2.13394,5.18454-0.14025,7.27231c2.09096,1.99933,5.34714,1.93448,7.27451-0.13657
					C88.89693,318.06592,88.88441,314.88858,86.93763,313.03268z" fill="#143d59" style=""></path>
				<path d="M69.04055,291.65002c-1.59357-2.16147-4.65547-2.77356-7.02816-1.23499
					c-2.37121,1.53854-3.0646,4.78467-1.35435,7.11313c1.67365,2.35403,4.86106,2.87866,7.11781,1.17212
					C70.02892,296.99667,70.59705,293.83798,69.04055,291.65002z" fill="#143d59" style=""></path>
				<path d="M125.08801,306.98944c-1.78492-1.27524-4.63018-0.46274-6.33208,1.78516
					c-1.70927,2.25775-1.50049,5.20224,0.45096,6.59442c1.92713,1.42752,4.83232,0.52069,6.37137-1.85001
					C127.11682,311.14926,126.84811,308.30008,125.08801,306.98944z" fill="#143d59" style=""></path>
				<path d="M107.6129,292.3623c-1.50368-1.5975-4.41525-1.3175-6.48362,0.6062c-2.06934,1.92566-2.40339,4.89078-0.75675,6.63269
					c1.74365,1.65155,4.70877,1.31458,6.63443-0.75354C108.93213,296.77954,109.21238,293.87042,107.6129,292.3623z" fill="#143d59" style=""></path>
				<path d="M92.97815,274.86633c-1.31087-1.75864-4.15687-2.03372-6.52955-0.49518
					c-2.36876,1.53659-3.2805,4.44672-1.85296,6.37238c1.39119,1.9512,4.33789,2.1575,6.59243,0.45193
					C93.44114,279.49185,94.25218,276.65051,92.97815,274.86633z" fill="#143d59" style=""></path>
				<path d="M112.76772,351.0762c-1.27821-0.73587-2.72736-0.90683-4.05248-0.60519c-1.30227,0.26822-2.49181,1.02667-3.238,2.22824
					c-0.74546,1.19962-0.89823,2.62125-0.52293,3.95941c0.3952,1.30176,1.33052,2.5004,2.68561,3.28049L112.76772,351.0762z" fill="#143d59" style=""></path>
				<path d="M127.3929,325.80096c-1.0628-0.61111-2.31644-0.66611-3.50107-0.27902
					c-1.16153,0.35269-2.26387,1.16522-3.00933,2.36581c-0.74594,1.20157-0.98567,2.56818-0.75085,3.82086
					c0.25495,1.2153,0.995,2.29898,2.13419,2.95432L127.3929,325.80096z" fill="#143d59" style=""></path>
			</g>
			<g>
				<path d="M28.62434,279.88089c-1.31554-2.89731-4.48329-4.35828-7.08539-3.2569c-2.60431,1.10233-3.59366,4.50366-2.19142,7.5867
					c1.35189,3.1066,4.76183,4.44669,7.24283,3.17633C29.1421,286.08133,29.88903,282.80084,28.62434,279.88089z" fill="#143d59" style=""></path>
				<path d="M25.52781,199.99361c0.06951,2.93369-2.16096,5.38596-4.98731,5.48616
					c-2.82463,0.10022-5.18208-2.35205-5.25233-5.48616H25.52781z" fill="#143d59" style=""></path>
				<path d="M54.72953,199.99066c0.06951,2.44441-2.173,4.49779-4.99787,4.59801c-2.8261,0.1002-5.17029-1.95317-5.24005-4.59801
					H54.72953z" fill="#143d59" style=""></path>
				<path d="M28.62434,279.88089c-1.31554-2.89731-4.48329-4.35828-7.08539-3.2569c-2.60431,1.10233-3.59366,4.50366-2.19142,7.5867
					c1.35189,3.1066,4.76183,4.44669,7.24283,3.17633C29.1421,286.08133,29.88903,282.80084,28.62434,279.88089z" fill="#143d59" style=""></path>
				<path d="M17.34696,248.9014c-0.87416-3.05748-3.58384-5.0863-6.37088-4.44867c-2.72417,0.6219-4.44694,3.83461-3.52022,7.09055
					c0.91764,3.26674,3.86753,5.23071,6.57106,4.4015C16.72849,255.11655,18.2108,251.96869,17.34696,248.9014z" fill="#143d59" style=""></path>
				<path d="M11.67339,216.41377c-0.24513-3.16457-2.72294-5.61977-5.54486-5.4783c-2.82413,0.14148-4.9173,2.99165-4.65523,6.35762
					c0.21099,3.37187,2.91157,5.80743,5.6996,5.46455C9.99605,222.4128,11.86645,219.58423,11.67339,216.41377z" fill="#143d59" style=""></path>
				<path d="M63.44362,249.66478c-0.77296-2.30785-3.59096-3.47502-6.28025-2.60553
					c-2.69125,0.86949-4.18364,3.60373-3.34092,6.10609c0.94146,2.46701,3.87268,3.58997,6.48632,2.52989
					C62.93494,254.63022,64.31434,251.93921,63.44362,249.66478z" fill="#143d59" style=""></path>
				<path d="M56.96074,225.22955c-0.2159-1.20648-0.97978-2.20468-2.03987-2.8649c-1.01539-0.66612-2.34567-0.99034-3.74472-0.79091
					c-1.39979,0.20044-2.60185,0.897-3.41166,1.8844c-0.7656,0.97757-1.11953,2.243-0.88841,3.53693
					c0.47306,2.59964,3.06263,4.23645,5.86343,3.64107C55.46958,230.0555,57.39794,227.6268,56.96074,225.22955z" fill="#143d59" style=""></path>
				<path d="M36.00128,259.64871c-0.94294-2.77548-3.88669-4.32584-6.57794-3.45636
					c-2.68954,0.86853-4.05715,3.98788-3.04446,6.95694c1.11094,2.93466,4.19322,4.42999,6.80538,3.37088
					C35.81215,265.45419,37.04172,262.38983,36.00128,259.64871z" fill="#143d59" style=""></path>
				<path d="M28.19622,230.26476c-0.25864-1.45111-1.05813-2.67038-2.14328-3.49074c-1.0402-0.82529-2.38521-1.24973-3.785-1.04929
					c-1.39905,0.19943-2.58686,0.99524-3.37211,2.1418c-0.74104,1.13869-1.0596,2.62518-0.78574,4.16374
					c0.55829,3.08694,3.23113,5.11674,6.03021,4.52234C26.87209,235.97099,28.71865,233.1503,28.19622,230.26476z" fill="#143d59" style=""></path>
				<path d="M55.08518,267.52917c-1.10553-2.44833-4.11511-3.53888-6.71671-2.43753
					c-2.60553,1.10333-3.75233,4.1333-2.56034,6.76733c1.14238,2.65662,4.37006,3.64008,6.85254,2.36874
					C55.21192,272.923,56.14012,269.99915,55.08518,267.52917z" fill="#143d59" style=""></path>
				<path d="M45.55932,241.36479c-0.7457-2.57703-3.36425-4.21483-6.15081-3.57622c-2.72589,0.62192-4.53856,3.44261-3.7403,6.21811
					c0.78942,2.78532,3.62141,4.36417,6.32667,3.53496C44.69596,246.71341,46.29495,243.95068,45.55932,241.36479z" fill="#143d59" style=""></path>
				<path d="M40.76728,213.90649c-0.20288-2.67726-2.65908-4.73555-5.48051-4.59407
					c-2.8261,0.14148-4.93941,2.59473-4.71958,5.47339c0.16923,2.88455,2.82143,4.92221,5.61118,4.57933
					C39.00103,219.0193,40.91858,216.58965,40.76728,213.90649z" fill="#143d59" style=""></path>
				<path d="M81.57648,255.16272c-0.89503-1.99738-3.74963-2.71556-6.35123-1.61519
					c-2.60332,1.10234-3.90732,3.76192-2.92558,5.94597c0.93212,2.20566,3.97781,2.83148,6.45758,1.56116
					C81.30852,259.75092,82.42142,257.18271,81.57648,255.16272z" fill="#143d59" style=""></path>
				<path d="M73.80434,233.81937c-0.617-2.0966-3.14835-3.34042-5.93466-2.7028c-2.72318,0.62093-4.626,3.04962-3.95644,5.34468
					c0.66096,2.30392,3.37506,3.49664,6.07786,2.66841C72.69193,238.30144,74.41177,235.92285,73.80434,233.81937z" fill="#143d59" style=""></path>
				<path d="M69.89482,211.39626c-0.16039-2.18896-2.5994-3.85033-5.42083-3.70885c-2.82315,0.14146-4.9566,2.19682-4.77927,4.58719
					c0.12748,2.39822,2.73104,4.03603,5.51834,3.69412C68.03548,215.62288,70.00436,213.5921,69.89482,211.39626z" fill="#143d59" style=""></path>
				<path d="M48.92185,287.22983c-1.46561-2.54462-4.67685-3.53003-7.14286-2.22137
					c-2.52767,1.34305-3.28786,4.6265-1.72032,7.34894L48.92185,287.22983z" fill="#143d59" style=""></path>
				<path d="M74.19881,272.6076c-1.21508-2.11331-4.2335-2.73816-6.6978-1.4295c-2.52914,1.34503-3.48092,4.26593-2.16391,6.55609
					L74.19881,272.6076z" fill="#143d59" style=""></path>
			</g>
			<g>
				<path d="M11.67953,183.50468c0.19257-3.17145-1.66948-6.00197-4.49582-6.34879
					c-2.78459-0.34386-5.49328,2.09171-5.70378,5.46553c-0.26232,3.36794,1.8306,6.21516,4.65474,6.3586
					C8.95659,189.12248,11.4344,186.67023,11.67953,183.50468z" fill="#143d59" style=""></path>
				<path d="M48.92553,112.76427c-1.46512,2.54462-4.67512,3.52612-7.1409,2.21647
					c-2.52767-1.34403-3.28934-4.62256-1.72179-7.34501L48.92553,112.76427z" fill="#143d59" style=""></path>
				<path d="M74.20323,127.38551c-1.21532,2.1143-4.23399,2.73719-6.69804,1.42754c-2.52915-1.34403-3.48068-4.26297-2.16342-6.5551
					L74.20323,127.38551z" fill="#143d59" style=""></path>
				<path d="M11.67953,183.50468c0.19257-3.17145-1.66948-6.00197-4.49582-6.34879
					c-2.78459-0.34386-5.49328,2.09171-5.70378,5.46553c-0.26232,3.36794,1.8306,6.21516,4.65474,6.3586
					C8.95659,189.12248,11.4344,186.67023,11.67953,183.50468z" fill="#143d59" style=""></path>
				<path d="M17.36047,151.05046c0.86237-3.06041-0.61921-6.2122-3.32028-7.04141c-2.70329-0.82922-5.65416,1.13771-6.57008,4.39659
					c-0.93286,3.26183,0.7936,6.47256,3.51678,7.09447C13.77467,156.13872,16.48041,154.11285,17.36047,151.05046z" fill="#143d59" style=""></path>
				<path d="M28.65823,120.04541c1.26519-2.91895,0.52366-6.2014-2.02882-7.50809c-2.47879-1.27035-5.89364,0.06877-7.24627,3.1734
					c-1.40175,3.08204-0.41215,6.48239,2.19142,7.58572C24.17617,124.39877,27.34294,122.94077,28.65823,120.04541z" fill="#143d59" style=""></path>
				<path d="M56.96958,174.72131c0.4372-2.39626-1.49263-4.8279-4.21803-5.40854c-2.80498-0.59735-5.39283,1.0424-5.86613,3.64009
					c-0.23113,1.29294,0.12355,2.55836,0.88816,3.53593c0.80514,0.9864,2.01064,1.68396,3.4092,1.8844
					c1.40003,0.2014,2.72687-0.12379,3.74693-0.78894C55.99054,176.92502,56.75368,175.92682,56.96958,174.72131z" fill="#143d59" style=""></path>
				<path d="M63.45934,150.28807c0.87637-2.27444-0.50647-4.96742-3.13116-6.03242c-2.61437-1.06206-5.54142,0.06189-6.48853,2.5289
					c-0.84321,2.50336,0.64967,5.2366,3.34067,6.10709C59.86936,153.76112,62.68613,152.59787,63.45934,150.28807z" fill="#143d59" style=""></path>
				<path d="M28.20678,169.6763c0.52243-2.88358-1.32512-5.70918-4.05248-6.28984c-2.80301-0.59734-5.47462,1.43541-6.03291,4.52138
					c-0.27411,1.53757,0.04519,3.02406,0.785,4.16177c0.78058,1.14655,1.97159,1.94237,3.36966,2.14279
					c1.40077,0.2014,2.74234-0.22302,3.78721-1.04733C27.14939,172.34569,27.94815,171.12643,28.20678,169.6763z" fill="#143d59" style=""></path>
				<path d="M36.02068,140.29527c1.04609-2.74112-0.18692-5.80841-2.81308-6.8744c-2.6129-1.06107-5.69125,0.43623-6.80808,3.3699
					c-1.01367,2.97102,0.35492,6.08743,3.04421,6.95694C32.13449,144.61818,35.07726,143.07176,36.02068,140.29527z" fill="#143d59" style=""></path>
				<path d="M40.77244,186.02473c0.15056-2.68413-1.75888-5.11577-4.58474-5.46356
					c-2.78631-0.34288-5.44637,1.69379-5.61511,4.58031c-0.21983,2.87965,1.89373,5.33093,4.71958,5.47438
					C38.11361,190.75832,40.56956,188.70297,40.77244,186.02473z" fill="#143d59" style=""></path>
				<path d="M45.57086,158.59492c0.73416-2.57999-0.86409-5.34665-3.56468-6.17488c-2.70501-0.8302-5.53798,0.75061-6.32569,3.53004
					c-0.80391,2.78041,1.01244,5.60013,3.73735,6.22203C42.20489,162.81073,44.81976,161.17688,45.57086,158.59492z" fill="#143d59" style=""></path>
				<path d="M55.11343,132.40892c1.05567-2.46896,0.13263-5.39479-2.4196-6.7005c-2.48027-1.27231-5.71238-0.28885-6.85549,2.3658
					c-1.19125,2.63206-0.04446,5.66203,2.56083,6.76634C51.00004,135.9429,54.00863,134.85529,55.11343,132.40892z" fill="#143d59" style=""></path>
				<path d="M69.89899,188.54774c0.10857-2.19682-1.85246-4.22957-4.67807-4.57738c-2.78386-0.3419-5.39528,1.29491-5.52178,3.69412
					c-0.17734,2.39136,1.95661,4.44572,4.77976,4.58818C67.30034,192.39513,69.7386,190.73769,69.89899,188.54774z" fill="#143d59" style=""></path>
				<path d="M73.81393,166.14723c0.60594-2.09956-1.11315-4.4801-3.81374-5.30833c-2.70255-0.82921-5.41714,0.36548-6.07663,2.6635
					c-0.67496,2.29999,1.23154,4.7267,3.95349,5.34862C70.66434,169.48962,73.19177,168.24777,73.81393,166.14723z" fill="#143d59" style=""></path>
				<path d="M81.59958,144.78618c0.84542-2.01898-0.26257-4.58817-2.81505-5.89388
					c-2.47757-1.27133-5.52718-0.64549-6.46004,1.55919c-0.981,2.18306,0.32323,4.84264,2.92607,5.94498
					C77.85166,147.49881,80.70528,146.78258,81.59958,144.78618z" fill="#143d59" style=""></path>
				<path d="M25.52757,199.99852c0.07025-2.93269-2.16047-5.38988-4.98681-5.49106
					c-2.82463-0.10022-5.18184,2.35696-5.25258,5.49106H25.52757z" fill="#143d59" style=""></path>
				<path d="M54.72928,200.00049c0.07024-2.44342-2.17275-4.49779-4.99738-4.59799c-2.82634-0.10022-5.1698,1.95415-5.24054,4.59799
					H54.72928z" fill="#143d59" style=""></path>
			</g>
			<g>
				<path d="M45.17787,91.51915c1.84067-2.59177,1.51081-6.07368-0.73809-7.77534c-2.25847-1.71049-5.68388-0.86458-7.64196,1.89422
					c-1.99296,2.73129-1.52259,6.30752,0.84886,7.84706C40.01667,95.02365,43.30158,94.0844,45.17787,91.51915z" fill="#143d59" style=""></path>
				<path d="M112.77435,48.91987c-1.27845,0.73587-2.72638,0.90683-4.051,0.60324c-1.30105-0.26822-2.4896-1.02669-3.23555-2.22826
					c-0.7457-1.20059-0.89922-2.62125-0.52489-3.95841c0.39471-1.3008,1.3288-2.49942,2.68388-3.27951L112.77435,48.91987z" fill="#143d59" style=""></path>
				<path d="M127.40051,74.19412c-1.06329,0.61111-2.31669,0.66711-3.50156,0.27903
					c-1.16129-0.35271-2.26338-1.16522-3.00884-2.36581c-0.74594-1.20157-0.98567-2.5682-0.75085-3.82085
					c0.2552-1.21435,0.995-2.299,2.13493-2.95432L127.40051,74.19412z" fill="#143d59" style=""></path>
				<path d="M45.17787,91.51915c1.84067-2.59177,1.51081-6.07368-0.73809-7.77534c-2.25847-1.71049-5.68388-0.86458-7.64196,1.89422
					c-1.99296,2.73129-1.52259,6.30752,0.84886,7.84706C40.01667,95.02365,43.30158,94.0844,45.17787,91.51915z" fill="#143d59" style=""></path>
				<path d="M66.32154,66.28616c2.29041-2.19682,2.59448-5.65023,0.66981-7.71933c-1.92615-2.07008-5.47388-1.86081-7.90821,0.47945
					c-2.3469,2.43753-2.55248,5.98428-0.48289,7.91092C60.66861,68.88284,64.11809,68.58025,66.32154,66.28616z" fill="#143d59" style=""></path>
				<path d="M91.58524,45.13045c2.56353-1.87555,3.51113-5.15703,1.97183-7.52972c-1.53709-2.36974-5.11896-2.84526-7.84951-0.85279
					c-2.75758,1.95612-3.60078,5.38398-1.89496,7.63877C85.51696,46.64052,88.9942,46.96965,91.58524,45.13045z" fill="#143d59" style=""></path>
				<path d="M88.74907,106.62181c1.60046-1.84019,1.19248-4.87801-0.90437-6.77222
					c-2.09857-1.89619-5.20197-1.80973-6.93359,0.18568c-1.73825,1.99149-1.17725,5.15114,1.02767,6.87146
					C84.19086,108.66634,87.141,108.45806,88.74907,106.62181z" fill="#143d59" style=""></path>
				<path d="M106.65916,88.71614c1.84042-1.60439,2.04749-4.5587,0.28983-6.81054c-1.72057-2.20567-4.87727-2.76469-6.87366-1.02964
					c-1.99639,1.73309-2.08163,4.83478-0.18618,6.93433C101.78312,89.90788,104.818,90.31758,106.65916,88.71614z" fill="#143d59" style=""></path>
				<path d="M66.39278,87.83485c1.91583-2.21548,1.77361-5.55002-0.32471-7.44621c-2.09685-1.8952-5.46724-1.51203-7.51424,0.85869
					c-2.05412,2.36679-1.73874,5.84084,0.46495,7.56017C61.27209,90.56811,64.46933,90.04642,66.39278,87.83485z" fill="#143d59" style=""></path>
				<path d="M87.88007,66.35395c2.21598-1.92075,2.73621-5.12166,0.97733-7.37449c-1.71909-2.20469-5.19019-2.51809-7.56214-0.46668
					c-2.37244,2.04749-2.75315,5.4164-0.85893,7.51399C82.33176,68.12634,85.66286,68.27076,87.88007,66.35395z" fill="#143d59" style=""></path>
				<path d="M69.08059,108.29399c1.55821-2.18896,0.98837-5.35156-1.25978-7.05322c-2.26019-1.71049-5.44465-1.18291-7.12027,1.1721
					c-1.71049,2.32945-1.02202,5.57065,1.35091,7.11118C64.42094,111.06261,67.48676,110.45642,69.08059,108.29399z" fill="#143d59" style=""></path>
				<path d="M86.96759,86.93785c1.94408-1.85099,1.95808-5.03225,0.0339-7.10037c-1.92738-2.07106-5.1843-2.13394-7.27231-0.1405
					c-1.99959,2.0917-1.93425,5.34763,0.13657,7.27525C81.93386,88.89691,85.11144,88.88414,86.96759,86.93785z" fill="#143d59" style=""></path>
				<path d="M108.34976,69.04102c2.16145-1.59357,2.77428-4.65596,1.23522-7.02865
					c-1.53807-2.37072-4.78418-3.06435-7.11266-1.35386c-2.35451,1.67316-2.87965,4.86032-1.17283,7.11708
					C103.00361,70.0294,106.16178,70.59727,108.34976,69.04102z" fill="#143d59" style=""></path>
				<path d="M93.01106,125.08847c1.27525-1.78516,0.46226-4.63042-1.7859-6.33207c-2.25798-1.70951-5.20148-1.50123-6.59439,0.45096
					c-1.4273,1.92664-0.52071,4.83183,1.85001,6.37137C88.85027,127.11729,91.70019,126.84809,93.01106,125.08847z" fill="#143d59" style=""></path>
				<path d="M107.63747,107.61313c1.59726-1.50417,1.31824-4.41526-0.60619-6.48338
					c-1.92541-2.07008-4.89102-2.40412-6.63222-0.75749c-1.65155,1.7439-1.31505,4.70902,0.75356,6.63468
					C103.22073,108.9326,106.12911,109.21261,107.63747,107.61313z" fill="#143d59" style=""></path>
				<path d="M125.13393,92.97813c1.75888-1.31063,2.03397-4.15687,0.49492-6.52956c-1.53659-2.36875-4.44669-3.28049-6.3726-1.85295
					c-1.95096,1.39119-2.15728,4.33764-0.45219,6.59243C120.50842,93.44088,123.3495,94.2524,125.13393,92.97813z" fill="#143d59" style=""></path>
				<path d="M48.92332,112.7682c0.73612-1.27821,0.90683-2.72736,0.60521-4.05273c-0.26748-1.30276-1.0262-2.49156-2.22728-3.23825
					c-1.20059-0.7457-2.62174-0.89798-3.95938-0.52267c-1.30178,0.39496-2.50114,1.33028-3.28148,2.68511L48.92332,112.7682z" fill="#143d59" style=""></path>
				<path d="M74.19881,127.39337c0.61111-1.06304,0.66612-2.31669,0.27879-3.50156
					c-0.35247-1.16129-1.16473-2.26363-2.36532-3.00933c-1.20132-0.7457-2.5687-0.98543-3.82111-0.75062
					c-1.21557,0.25446-2.29875,0.99525-2.95407,2.13395L74.19881,127.39337z" fill="#143d59" style=""></path>
			</g>
			<g>
				<path d="M120.11936,28.62481c2.89733-1.31554,4.35778-4.48403,3.25642-7.08563c-1.1021-2.60455-4.50319-3.59391-7.58694-2.19191
					c-3.1061,1.35189-4.44596,4.76207-3.17561,7.24283C113.91821,29.14258,117.19919,29.88926,120.11936,28.62481z" fill="#143d59" style=""></path>
				<path d="M200.00592,25.52804c-2.93295,0.06976-5.38547-2.16145-5.48592-4.98706
					c-0.10022-2.82463,2.35205-5.18257,5.48616-5.25233L200.00592,25.52804z" fill="#143d59" style=""></path>
				<path d="M200.00887,54.72926c-2.44441,0.06976-4.4973-2.17226-4.59752-4.99787c-0.09996-2.82561,1.95293-5.1698,4.59825-5.23956
					L200.00887,54.72926z" fill="#143d59" style=""></path>
				<path d="M120.11936,28.62481c2.89733-1.31554,4.35778-4.48403,3.25642-7.08563c-1.1021-2.60455-4.50319-3.59391-7.58694-2.19191
					c-3.1061,1.35189-4.44596,4.76207-3.17561,7.24283C113.91821,29.14258,117.19919,29.88926,120.11936,28.62481z" fill="#143d59" style=""></path>
				<path d="M151.09863,17.34694c3.05722-0.8744,5.08604-3.58408,4.44841-6.37039c-0.62166-2.72441-3.83461-4.44768-7.09055-3.52022
					c-3.26601,0.91763-5.23022,3.86704-4.40126,6.57082C144.88347,16.72896,148.03181,18.21054,151.09863,17.34694z" fill="#143d59" style=""></path>
				<path d="M183.58575,11.67313c3.16457-0.24464,5.62051-2.72245,5.47903-5.54413c-0.14172-2.82463-2.99165-4.9173-6.35811-4.65597
					c-3.37187,0.21123-5.80743,2.91207-5.46455,5.70034C177.58748,9.99604,180.41579,11.86667,183.58575,11.67313z" fill="#143d59" style=""></path>
				<path d="M150.33499,63.44385c2.30833-0.77321,3.47504-3.59096,2.60603-6.28c-0.86925-2.69199-3.60423-4.18438-6.10611-3.34141
					c-2.46774,0.94122-3.59047,3.87293-2.53012,6.48632C145.36955,62.93492,148.06032,64.31432,150.33499,63.44385z" fill="#143d59" style=""></path>
				<path d="M174.77022,56.96047c1.20673-0.21516,2.20468-0.97953,2.86516-2.03963c0.66562-1.0149,0.99083-2.34518,0.79089-3.74422
					c-0.20018-1.40003-0.897-2.60258-1.88391-3.41215c-0.97806-0.76535-2.24324-1.11905-3.53741-0.88816
					c-2.59914,0.47257-4.23669,3.06239-3.64131,5.86343C169.94453,55.47005,172.37297,57.39767,174.77022,56.96047z" fill="#143d59" style=""></path>
				<path d="M140.35155,36.00126c2.77525-0.94318,4.32561-3.88668,3.45636-6.57769c-0.869-2.69003-3.98813-4.05764-6.95694-3.0447
					c-2.93442,1.11118-4.43073,4.19322-3.37112,6.80563C134.54533,35.81262,137.61018,37.0417,140.35155,36.00126z" fill="#143d59" style=""></path>
				<path d="M169.7355,28.19645c1.45088-0.25839,2.67014-1.05813,3.49075-2.14377c0.82552-1.03946,1.24947-2.38448,1.04929-3.78451
					c-0.19994-1.39905-0.99574-2.58686-2.1423-3.37187c-1.13844-0.74177-2.62492-1.06009-4.16325-0.78598
					c-3.08743,0.55805-5.11723,3.23137-4.52258,6.03045C164.02878,26.87207,166.84996,28.71913,169.7355,28.19645z" fill="#143d59" style=""></path>
				<path d="M132.47133,55.08492c2.4476-1.10529,3.5379-4.11462,2.43678-6.71622c-1.10283-2.60553-4.13329-3.75209-6.7673-2.56034
					c-2.65638,1.14262-3.6396,4.37006-2.36826,6.85279C127.07703,55.21166,130.00089,56.1401,132.47133,55.08492z" fill="#143d59" style=""></path>
				<path d="M158.63522,45.55979c2.57729-0.7457,4.21434-3.36499,3.57671-6.1513c-0.62215-2.7254-3.44284-4.53807-6.21884-3.7403
					c-2.78484,0.78991-4.36368,3.62141-3.53447,6.32716C153.28661,44.69619,156.04958,46.29469,158.63522,45.55979z" fill="#143d59" style=""></path>
				<path d="M186.09352,40.76726c2.67677-0.20239,4.73555-2.65859,4.59407-5.48027c-0.14148-2.82659-2.59448-4.9399-5.47313-4.71983
					c-2.88506,0.16899-4.92198,2.82168-4.57959,5.61094C180.98071,39.00076,183.41039,40.91856,186.09352,40.76726z" fill="#143d59" style=""></path>
				<path d="M144.83754,81.57647c1.99738-0.89504,2.71556-3.74914,1.6147-6.35074c-1.10185-2.60357-3.76141-3.90732-5.94522-2.92583
					c-2.20616,0.93237-2.83249,3.97806-1.56189,6.45783C140.24936,81.30825,142.81732,82.4214,144.83754,81.57647z" fill="#143d59" style=""></path>
				<path d="M166.18065,73.80408c2.09686-0.617,3.34068-3.14787,2.7028-5.93417c-0.62141-2.72343-3.04936-4.62649-5.34517-3.95644
					c-2.30293,0.66121-3.49615,3.37481-2.66768,6.07761C161.69859,72.69192,164.07668,74.41224,166.18065,73.80408z" fill="#143d59" style=""></path>
				<path d="M188.60425,69.8948c2.18823-0.16014,3.84935-2.59964,3.70813-5.42033c-0.14172-2.82364-2.19682-4.9566-4.58745-4.77975
					c-2.39774,0.12772-4.03552,2.73129-3.69362,5.51858C184.37738,68.03595,186.40817,70.00484,188.60425,69.8948z" fill="#143d59" style=""></path>
				<path d="M112.77042,48.92183c2.54462-1.46586,3.53029-4.6766,2.22089-7.14262c-1.34329-2.52792-4.62624-3.28836-7.34845-1.72032
					L112.77042,48.92183z" fill="#143d59" style=""></path>
				<path d="M127.3929,74.19904c2.11331-1.21532,2.73767-4.2335,1.42853-6.69756c-1.34404-2.52988-4.26495-3.48092-6.5556-2.1644
					L127.3929,74.19904z" fill="#143d59" style=""></path>
			</g>
			<g>
				<path d="M216.49535,11.68c3.17168,0.19257,6.0022-1.67021,6.34901-4.49582c0.34363-2.78533-2.09193-5.49402-5.46553-5.70427
					c-3.36794-0.26232-6.21565,1.83036-6.35835,4.65498C210.87753,8.95657,213.3293,11.43438,216.49535,11.68z" fill="#143d59" style=""></path>
				<path d="M287.23599,48.92576c-2.54486-1.46487-3.52585-4.67562-2.21646-7.14066
					c1.34354-2.52792,4.62207-3.28934,7.34451-1.72228L287.23599,48.92576z" fill="#143d59" style=""></path>
				<path d="M272.61475,74.20296c-2.11453-1.21532-2.73718-4.2335-1.42801-6.69756c1.34427-2.5289,4.2637-3.48092,6.55557-2.16341
					L272.61475,74.20296z" fill="#143d59" style=""></path>
				<path d="M216.49535,11.68c3.17168,0.19257,6.0022-1.67021,6.34901-4.49582c0.34363-2.78533-2.09193-5.49402-5.46553-5.70427
					c-3.36794-0.26232-6.21565,1.83036-6.35835,4.65498C210.87753,8.95657,213.3293,11.43438,216.49535,11.68z" fill="#143d59" style=""></path>
				<path d="M248.94955,17.36069c3.06042,0.86262,6.21245-0.61896,7.04143-3.32078c0.82945-2.7028-1.13747-5.65416-4.39659-6.56983
					c-3.26184-0.93237-6.47258,0.79384-7.09473,3.51727C243.86105,13.77465,245.88667,16.48039,248.94955,17.36069z" fill="#143d59" style=""></path>
				<path d="M279.95486,28.65821c2.91818,1.26543,6.2009,0.52366,7.50784-2.02882c1.27084-2.47879-0.06927-5.89389-3.1734-7.24578
					c-3.08203-1.402-6.48215-0.41264-7.58548,2.19093C275.60126,24.17615,277.05923,27.34267,279.95486,28.65821z" fill="#143d59" style=""></path>
				<path d="M225.27895,56.96931c2.39577,0.4372,4.8279-1.49239,5.40878-4.21778c0.59735-2.80498-1.04265-5.39283-3.64008-5.86638
					c-1.29369-0.23088-2.55862,0.12379-3.53668,0.88816c-0.9864,0.80563-1.6842,2.01113-1.88438,3.4092
					c-0.20068,1.40003,0.12428,2.72736,0.78893,3.74717C223.07524,55.99076,224.07271,56.75415,225.27895,56.96931z" fill="#143d59" style=""></path>
				<path d="M249.71245,63.45956c2.27345,0.87637,4.96667-0.50696,6.03217-3.13116c1.06157-2.61438-0.06213-5.54118-2.5289-6.48829
					c-2.50336-0.84395-5.2366,0.64942-6.10684,3.34043C246.23914,59.86959,247.40263,62.68636,249.71245,63.45956z" fill="#143d59" style=""></path>
				<path d="M230.32373,28.20726c2.88332,0.5217,5.70868-1.32536,6.29031-4.05272c0.5966-2.80301-1.43614-5.47437-4.52136-6.0334
					c-1.53758-0.27411-3.02408,0.04519-4.16252,0.785c-1.14606,0.78107-1.94261,1.97183-2.14279,3.3699
					c-0.20067,1.40101,0.22302,2.7421,1.04733,3.78745C227.65457,27.14913,228.87334,27.94788,230.32373,28.20726z" fill="#143d59" style=""></path>
				<path d="M259.70523,36.02091c2.74063,1.04634,5.80792-0.18667,6.8739-2.81284c1.0611-2.61339-0.43622-5.6915-3.3699-6.80858
					c-2.97076-1.01392-6.08743,0.35468-6.95715,3.0447C255.38159,32.13422,256.92825,35.07773,259.70523,36.02091z" fill="#143d59" style=""></path>
				<path d="M213.97504,40.77217c2.68488,0.1513,5.11626-1.75864,5.46356-4.58425c0.34338-2.78631-1.6933-5.44686-4.57982-5.61486
					c-2.88014-0.22008-5.33118,1.89324-5.47412,4.71884C209.24194,38.11359,211.29729,40.56978,213.97504,40.77217z" fill="#143d59" style=""></path>
				<path d="M241.40535,45.5706c2.58023,0.73489,5.34639-0.8636,6.17513-3.56443c0.82994-2.70476-0.75136-5.53823-3.5303-6.3252
					c-2.7809-0.80465-5.59987,1.01195-6.22252,3.73735C237.18904,42.20463,238.82364,44.81998,241.40535,45.5706z" fill="#143d59" style=""></path>
				<path d="M267.59134,55.11341c2.46896,1.05616,5.39429,0.13263,6.7005-2.41985c1.27182-2.47977,0.28885-5.71213-2.36581-6.85475
					c-2.63278-1.19175-5.66275-0.04519-6.76682,2.56034C264.05688,51.00076,265.14496,54.00911,267.59134,55.11341z" fill="#143d59" style=""></path>
				<path d="M211.45203,69.89873c2.19733,0.10905,4.22932-1.85197,4.57713-4.67758c0.34264-2.78434-1.29442-5.39479-3.69363-5.52153
					c-2.39136-0.17783-4.44547,1.95612-4.58818,4.77976C207.60464,67.30007,209.26257,69.73859,211.45203,69.89873z" fill="#143d59" style=""></path>
				<path d="M233.85254,73.8139c2.09932,0.60619,4.48035-1.11314,5.30907-3.81398c0.82921-2.70181-0.36597-5.4164-2.66423-6.07663
					c-2.2995-0.67496-4.72646,1.23203-5.34813,3.95349C230.51039,70.66408,231.75224,73.19199,233.85254,73.8139z" fill="#143d59" style=""></path>
				<path d="M255.21384,81.60004c2.01874,0.84493,4.58792-0.2633,5.89413-2.81578c1.27084-2.47683,0.64499-5.52644-1.55969-6.45979
					c-2.18283-0.98051-4.84215,0.32323-5.94522,2.92582C252.50096,77.85189,253.21719,80.70501,255.21384,81.60004z" fill="#143d59" style=""></path>
				<path d="M200.0015,25.52804c2.93294,0.06976,5.38988-2.16047,5.49059-4.98706c0.10069-2.82463-2.35623-5.18159-5.49034-5.25233
					L200.0015,25.52804z" fill="#143d59" style=""></path>
				<path d="M200.00002,54.72926c2.44293,0.07074,4.4973-2.17226,4.59776-4.99689c0.1002-2.82659-1.9539-5.1698-4.59776-5.24054
					V54.72926z" fill="#143d59" style=""></path>
			</g>
			<g>
				<path d="M308.48111,45.1776c2.5918,1.84117,6.07318,1.51105,7.77557-0.73784c1.71002-2.25872,0.86386-5.68364-1.8942-7.64172
					c-2.7323-1.99345-6.30777-1.52284-7.84781,0.84886C304.97614,40.01665,305.91611,43.30206,308.48111,45.1776z" fill="#143d59" style=""></path>
				<path d="M351.08038,112.77409c-0.73587-1.2782-0.9068-2.72637-0.60373-4.05076c0.26797-1.3008,1.02744-2.4896,2.22876-3.2353
					c1.20035-0.7457,2.621-0.89897,3.95816-0.52464c1.30057,0.39397,2.49966,1.32831,3.28,2.68315L351.08038,112.77409z" fill="#143d59" style=""></path>
				<path d="M325.80539,127.40025c-0.61108-1.06304-0.66684-2.31668-0.27853-3.50156
					c0.35272-1.16129,1.16522-2.26264,2.36581-3.00835c1.20132-0.7457,2.56845-0.98543,3.82086-0.75061
					c1.21484,0.25446,2.29852,0.99426,2.95407,2.13493L325.80539,127.40025z" fill="#143d59" style=""></path>
				<path d="M308.48111,45.1776c2.5918,1.84117,6.07318,1.51105,7.77557-0.73784c1.71002-2.25872,0.86386-5.68364-1.8942-7.64172
					c-2.7323-1.99345-6.30777-1.52284-7.84781,0.84886C304.97614,40.01665,305.91611,43.30206,308.48111,45.1776z" fill="#143d59" style=""></path>
				<path d="M333.71387,66.32153c2.19705,2.29015,5.65024,2.59473,7.71884,0.67005c2.07031-1.92664,1.86154-5.47437-0.47849-7.90797
					c-2.43802-2.34714-5.98474-2.55248-7.91089-0.48338C331.11768,60.66834,331.42001,64.11783,333.71387,66.32153z" fill="#143d59" style=""></path>
				<path d="M354.86932,91.58498c1.87604,2.56427,5.15704,3.51138,7.53021,1.97183c2.36972-1.53659,2.84476-5.11871,0.85229-7.84902
					c-1.95612-2.75781-5.38373-3.60078-7.63901-1.8952C353.35925,85.51719,353.03036,88.99418,354.86932,91.58498z" fill="#143d59" style=""></path>
				<path d="M293.37845,88.74954c1.84018,1.60046,4.87753,1.19175,6.77249-0.90486c1.89618-2.09857,1.8092-5.20222-0.18594-6.93335
					c-1.99197-1.73801-5.15164-1.17701-6.87219,1.02767C291.33344,84.19084,291.54221,87.14123,293.37845,88.74954z" fill="#143d59" style=""></path>
				<path d="M311.28387,106.65914c1.6044,1.84019,4.55847,2.04749,6.81006,0.28983c2.20639-1.72032,2.76492-4.87702,1.03012-6.87342
					c-1.73285-1.99639-4.83502-2.08187-6.93408-0.18667C310.09213,101.7831,309.68195,104.81798,311.28387,106.65914z" fill="#143d59" style=""></path>
				<path d="M312.16541,66.39325c2.21548,1.91583,5.54977,1.77337,7.44595-0.3252c1.89496-2.09661,1.5123-5.46749-0.85843-7.514
					c-2.36752-2.05436-5.84134-1.73899-7.56067,0.46471C309.43192,61.27257,309.95386,64.46955,312.16541,66.39325z" fill="#143d59" style=""></path>
				<path d="M333.64633,87.88005c1.92023,2.21647,5.12091,2.7362,7.37396,0.97756c2.2052-1.71934,2.51785-5.19043,0.46744-7.56213
					c-2.04822-2.37269-5.4169-2.75291-7.5145-0.85869C331.87418,82.33199,331.72925,85.6626,333.64633,87.88005z" fill="#143d59" style=""></path>
				<path d="M291.70627,69.08032c2.18848,1.55821,5.35083,0.98837,7.05298-1.25954c1.71072-2.2597,1.18314-5.44489-1.17184-7.12002
					c-2.32996-1.71049-5.5704-1.02178-7.11118,1.35091C288.93765,64.42141,289.54337,67.48675,291.70627,69.08032z" fill="#143d59" style=""></path>
				<path d="M313.06241,86.96733c1.85049,1.94432,5.03152,1.95808,7.09988,0.03439c2.07156-1.92763,2.13394-5.18454,0.1405-7.27231
					c-2.09097-1.99934-5.34714-1.9345-7.27478,0.13657C311.10284,81.93409,311.11563,85.11143,313.06241,86.96733z" fill="#143d59" style=""></path>
				<path d="M330.95923,108.34999c1.59384,2.16145,4.65573,2.77451,7.02841,1.23497
					c2.37122-1.53757,3.06461-4.78368,1.35434-7.11216c-1.67389-2.355-4.86105-2.87965-7.1178-1.17308
					C329.9711,103.00334,329.40274,106.16201,330.95923,108.34999z" fill="#143d59" style=""></path>
				<path d="M274.9118,93.01154c1.78491,1.27525,4.63016,0.46176,6.33231-1.78615c1.70926-2.25774,1.50049-5.20124-0.4512-6.59439
					c-1.92688-1.42754-4.83206-0.52071-6.37137,1.85001C272.88297,88.85074,273.15167,91.69993,274.9118,93.01154z" fill="#143d59" style=""></path>
				<path d="M292.38715,107.6377c1.50342,1.5975,4.41501,1.31848,6.48337-0.60619c2.06958-1.92566,2.40363-4.89078,0.75674-6.63271
					c-1.74365-1.65154-4.70877-1.31455-6.63443,0.75356C291.06766,103.22047,290.78766,106.12959,292.38715,107.6377z" fill="#143d59" style=""></path>
				<path d="M307.02164,125.13367c1.31113,1.75962,4.15686,2.03471,6.52957,0.49517c2.36899-1.5366,3.28073-4.4467,1.85318-6.37235
					c-1.39117-1.9512-4.33789-2.15752-6.59244-0.45194C306.5589,120.50816,305.74786,123.34949,307.02164,125.13367z" fill="#143d59" style=""></path>
				<path d="M287.23206,48.9238c1.27847,0.73587,2.72763,0.90683,4.05273,0.60521c1.30203-0.26822,2.49182-1.02669,3.23776-2.22728
					c0.7457-1.20059,0.89847-2.62223,0.52292-3.95938c-0.3952-1.30178-1.33051-2.50139-2.68561-3.28148L287.23206,48.9238z" fill="#143d59" style=""></path>
				<path d="M272.60715,74.19904c1.06253,0.61111,2.31619,0.66612,3.50107,0.27902c1.16129-0.35271,2.26385-1.16521,3.00931-2.36581
					c0.74597-1.20157,0.98544-2.5682,0.75061-3.82085c-0.25494-1.21533-0.995-2.299-2.13419-2.95432L272.60715,74.19904z" fill="#143d59" style=""></path>
			</g>
			<g>
				<path d="M371.37546,120.11909c1.3158,2.89733,4.48355,4.35828,7.08563,3.25692c2.60406-1.10234,3.59341-4.50368,2.19141-7.5867
					c-1.35211-3.1066-4.76205-4.44669-7.24307-3.17635C370.85794,113.91868,370.11075,117.19917,371.37546,120.11909z" fill="#143d59" style=""></path>
				<path d="M374.47223,200.0054c-0.06976-2.93172,2.16095-5.38496,4.9873-5.48517c2.82437-0.1012,5.18182,2.35303,5.25232,5.48517
					H374.47223z" fill="#143d59" style=""></path>
				<path d="M345.27051,200.01031c-0.06976-2.44736,2.173-4.49779,4.99786-4.59898c2.82611-0.09923,5.1698,1.95219,5.24005,4.59898
					H345.27051z" fill="#143d59" style=""></path>
				<path d="M371.37546,120.11909c1.3158,2.89733,4.48355,4.35828,7.08563,3.25692c2.60406-1.10234,3.59341-4.50368,2.19141-7.5867
					c-1.35211-3.1066-4.76205-4.44669-7.24307-3.17635C370.85794,113.91868,370.11075,117.19917,371.37546,120.11909z" fill="#143d59" style=""></path>
				<path d="M382.65308,151.0986c0.87418,3.05748,3.58383,5.0863,6.37088,4.44867c2.72418-0.6219,4.44696-3.83461,3.52023-7.09055
					c-0.91788-3.26576-3.86777-5.23071-6.57132-4.4015C383.27155,144.88345,381.789,148.03229,382.65308,151.0986z" fill="#143d59" style=""></path>
				<path d="M388.32666,183.58623c0.24487,3.16457,2.72269,5.61977,5.54462,5.4783c2.82437-0.14148,4.9173-2.99165,4.65546-6.35762
					c-0.21097-3.37187-2.91156-5.80743-5.69983-5.46455C390.00372,177.5872,388.13358,180.41577,388.32666,183.58623z" fill="#143d59" style=""></path>
				<path d="M336.55643,150.33522c0.77271,2.30785,3.5907,3.47502,6.28024,2.60652c2.69125-0.86949,4.18338-3.60472,3.34067-6.10709
					c-0.94147-2.46701-3.87244-3.58998-6.48633-2.52989C337.06485,145.36978,335.6857,148.06079,336.55643,150.33522z" fill="#143d59" style=""></path>
				<path d="M343.03931,174.77045c0.21564,1.20648,0.97952,2.20468,2.03961,2.8649c1.01541,0.66612,2.34567,0.99133,3.74472,0.79091
					c1.39978-0.20044,2.60211-0.897,3.41165-1.88342c0.76584-0.97855,1.11978-2.24397,0.88867-3.5379
					c-0.47308-2.59865-3.0629-4.23645-5.86343-3.64107C344.53046,169.9445,342.60211,172.3732,343.03931,174.77045z" fill="#143d59" style=""></path>
				<path d="M363.9985,140.35127c0.94293,2.77551,3.88693,4.32585,6.57794,3.45636c2.68954-0.8685,4.0574-3.98787,3.04471-6.95692
					c-1.11118-2.93369-4.19345-4.42999-6.80563-3.37088C364.1879,134.54581,362.95831,137.61017,363.9985,140.35127z" fill="#143d59" style=""></path>
				<path d="M371.80356,169.73524c0.25864,1.45111,1.05838,2.67038,2.14328,3.49074
					c1.04047,0.82626,2.38547,1.24973,3.78525,1.04929c1.3988-0.19943,2.58688-0.99524,3.37186-2.1418
					c0.74106-1.13869,1.05963-2.62518,0.78574-4.16374c-0.55804-3.08694-3.23087-5.11674-6.02994-4.52234
					C373.12796,164.02901,371.28137,166.85069,371.80356,169.73524z" fill="#143d59" style=""></path>
				<path d="M344.91486,132.4718c1.10529,2.44736,4.11487,3.5379,6.71646,2.43654c2.60577-1.10332,3.75235-4.13329,2.56033-6.7673
					c-1.14212-2.65662-4.37006-3.64008-6.85254-2.36876C344.78787,127.07701,343.85992,130.00087,344.91486,132.4718z" fill="#143d59" style=""></path>
				<path d="M354.44046,158.63521c0.74573,2.57703,3.3645,4.21483,6.15082,3.57719c2.72589-0.62289,4.53882-3.4426,3.7403-6.21909
					c-0.78943-2.78532-3.6214-4.36417-6.32666-3.53496C355.30408,153.28659,353.70483,156.04932,354.44046,158.63521z" fill="#143d59" style=""></path>
				<path d="M359.23276,186.09351c0.20264,2.67726,2.65909,4.73555,5.4805,4.59407c2.82587-0.14148,4.93918-2.59473,4.7196-5.47339
					c-0.16925-2.88455-2.82144-4.92123-5.61145-4.57933C360.99902,180.9807,359.08121,183.41035,359.23276,186.09351z" fill="#143d59" style=""></path>
				<path d="M318.42331,144.83728c0.89502,1.99738,3.74988,2.71655,6.35147,1.61519
					c2.60309-1.10234,3.90707-3.76192,2.92557-5.94498c-0.93237-2.20665-3.97781-2.83249-6.45758-1.56215
					C318.69128,140.2491,317.57837,142.81729,318.42331,144.83728z" fill="#143d59" style=""></path>
				<path d="M326.19543,166.18063c0.61725,2.0966,3.14838,3.34042,5.93491,2.7028c2.72321-0.62093,4.62601-3.04962,3.95621-5.34468
					c-0.66095-2.30293-3.37506-3.49664-6.07761-2.66841C327.30786,161.69856,325.58829,164.07715,326.19543,166.18063z" fill="#143d59" style=""></path>
				<path d="M330.10522,188.60472c0.16037,2.18799,2.59915,3.84935,5.42056,3.70787
					c2.82339-0.14146,4.95685-2.19682,4.77951-4.58719c-0.12747-2.39822-2.73126-4.03603-5.51831-3.69412
					C331.96432,184.37712,329.99542,186.4079,330.10522,188.60472z" fill="#143d59" style=""></path>
				<path d="M351.07819,112.77016c1.46536,2.54462,4.67661,3.53103,7.14261,2.22139c2.52768-1.34305,3.28812-4.6265,1.72034-7.34895
					L351.07819,112.77016z" fill="#143d59" style=""></path>
				<path d="M325.80099,127.39337c1.21506,2.11331,4.23373,2.73718,6.69778,1.42853
					c2.52914-1.34404,3.48117-4.26495,2.16391-6.55608L325.80099,127.39337z" fill="#143d59" style=""></path>
			</g>
		</g>
		<circle cx="200" cy="200" r="133.67848" fill="#143d59" style=""></circle>
	</g>
</g>


<desc>Created with Snap</desc><defs></defs></g><g><g transform="matrix(0.5,0,0,-0.5,0,0)"><path d="M1677 -444L1681 -464Q1649 -489 1609 -498Q1569 -507 1527 -507Q1378 -507 1265 -462Q1152 -417 1068 -339Q985 -261 929 -156Q873 -50 838 71Q804 193 787 323Q771 454 767 583Q764 712 770 833Q777 954 788 1055Q730 981 678 877Q626 773 581 654Q537 535 499 409Q461 284 430 165Q400 46 376 -58Q353 -162 337 -236Q335 -244 332 -257Q330 -270 324 -282Q319 -294 310 -303Q301 -311 288 -311Q276 -311 265 -304Q254 -296 245 -286Q236 -275 229 -263Q223 -250 220 -239Q190 -142 175 -31Q161 81 155 195Q150 310 150 423Q151 536 151 637Q151 749 154 861Q157 973 165 1085Q168 1125 173 1174Q179 1223 196 1265Q213 1307 245 1335Q277 1364 333 1364Q347 1364 356 1357Q366 1351 366 1335L366 1327Q353 1208 342 1093Q331 979 322 865Q314 751 309 635Q305 520 305 399Q305 281 310 162Q315 44 327 -74Q364 96 404 258Q445 420 497 575Q549 731 617 879Q685 1027 776 1169Q784 1182 796 1199Q809 1217 824 1232Q840 1248 857 1259Q874 1270 892 1270Q914 1270 926 1250Q939 1230 944 1203Q950 1177 951 1150Q952 1123 952 1108Q945 1014 935 897Q926 780 923 652Q920 524 926 392Q933 260 957 136Q981 13 1027 -96Q1073 -204 1148 -285Q1224 -366 1332 -413Q1441 -460 1591 -460Q1612 -460 1634 -457Q1657 -453 1677 -444ZM1703 524Q1703 513 1695 504Q1687 496 1676 496Q1667 496 1657 501Q1647 507 1634 514Q1622 521 1605 526Q1589 532 1568 532Q1519 532 1480 501Q1442 471 1415 426Q1389 381 1375 330Q1361 279 1361 238Q1361 209 1366 181Q1371 154 1383 131Q1396 109 1418 95Q1440 82 1474 82Q1510 82 1543 95Q1576 109 1605 131Q1606 163 1615 198Q1625 234 1640 268Q1655 303 1674 334Q1694 365 1715 389L1728 381Q1717 347 1712 311Q1707 275 1707 240Q1707 204 1713 172Q1719 140 1734 116Q1749 93 1775 79Q1801 66 1842 66Q1892 66 1934 89Q1976 112 2008 147L2016 143Q1998 108 1969 76Q1940 44 1904 18Q1869 -7 1829 -22Q1789 -37 1750 -37Q1695 -37 1660 -6Q1625 26 1612 74Q1570 32 1518 3Q1467 -25 1410 -25Q1368 -25 1335 -10Q1303 6 1281 32Q1259 58 1247 93Q1236 129 1236 168Q1236 213 1250 260Q1265 308 1290 354Q1316 400 1351 441Q1386 482 1427 513Q1469 544 1515 562Q1561 580 1609 580Q1620 580 1636 577Q1652 575 1667 569Q1682 563 1692 552Q1703 541 1703 524ZM2200 807Q2200 787 2191 767Q2182 747 2167 731Q2153 716 2134 706Q2115 696 2095 696Q2069 696 2053 713Q2038 730 2038 756Q2038 776 2047 795Q2056 815 2070 830Q2085 845 2103 854Q2122 864 2142 864Q2168 864 2184 848Q2200 832 2200 807ZM2474 147L2480 143Q2457 105 2425 73Q2394 42 2356 18Q2319 -5 2276 -18Q2234 -31 2189 -31Q2133 -31 2089 -12Q2046 7 2016 40Q1987 74 1971 119Q1956 165 1956 219Q1956 277 1973 329Q1990 381 2020 426Q2050 472 2090 510Q2131 548 2177 578L2189 569Q2140 511 2109 439Q2079 367 2079 289Q2079 244 2089 202Q2100 161 2122 129Q2145 97 2180 78Q2215 59 2265 59Q2324 59 2377 84Q2431 109 2474 147ZM3191 147L3200 143Q3182 103 3154 71Q3127 39 3095 16Q3063 -6 3029 -19Q2995 -31 2964 -31Q2906 -31 2866 -11Q2826 9 2801 43Q2776 77 2765 123Q2754 169 2754 221Q2754 261 2760 304Q2766 347 2777 387Q2779 393 2781 401Q2783 410 2783 416Q2783 421 2777 424Q2760 430 2741 435Q2722 441 2703 448Q2685 455 2668 464Q2652 473 2640 487Q2639 427 2620 365Q2601 304 2569 247Q2538 191 2496 142Q2454 93 2407 57L2397 67Q2426 99 2450 143Q2474 187 2491 235Q2508 283 2517 332Q2527 381 2527 424Q2527 446 2523 465Q2519 485 2514 503Q2510 521 2506 537Q2502 554 2502 571Q2502 599 2520 615Q2538 631 2566 631Q2581 631 2589 622Q2597 614 2603 602Q2609 590 2617 577Q2625 564 2640 555Q2659 544 2688 539Q2717 534 2749 530Q2781 526 2813 522Q2845 518 2870 508Q2896 499 2912 482Q2928 466 2928 438Q2928 424 2925 410Q2923 397 2918 385Q2906 343 2897 299Q2889 256 2889 213Q2889 176 2894 145Q2900 115 2915 93Q2930 71 2955 59Q2980 47 3019 47Q3075 47 3117 74Q3159 102 3191 147ZM3727 295Q3727 225 3704 165Q3681 105 3639 61Q3597 17 3538 -8Q3480 -33 3409 -33Q3346 -33 3295 -10Q3245 14 3209 54Q3173 94 3154 147Q3135 201 3135 262Q3135 313 3149 359Q3164 405 3190 444Q3216 484 3252 517Q3288 551 3330 578L3342 569Q3300 520 3276 461Q3252 402 3252 336Q3252 288 3266 238Q3281 189 3309 148Q3337 107 3379 81Q3421 55 3475 55Q3509 55 3539 69Q3569 83 3591 107Q3614 131 3627 161Q3641 192 3641 225Q3641 257 3631 287Q3622 318 3605 344Q3588 371 3564 392Q3540 414 3512 428Q3496 436 3481 440Q3467 444 3450 449Q3443 450 3435 452Q3427 455 3420 458Q3413 462 3408 468Q3403 474 3403 483Q3403 501 3416 516Q3429 531 3447 542Q3465 554 3485 560Q3505 567 3520 567Q3571 567 3610 541Q3649 515 3675 475Q3701 435 3714 387Q3727 339 3727 295ZM4484 1239Q4484 1170 4464 1102Q4445 1035 4411 971Q4377 908 4330 850Q4284 793 4230 744Q4176 696 4117 656Q4058 617 3999 591L3992 606Q4066 641 4133 705Q4201 770 4252 850Q4304 931 4334 1020Q4365 1109 4365 1194Q4365 1211 4362 1229Q4360 1247 4352 1262Q4345 1277 4332 1286Q4319 1296 4298 1296Q4239 1296 4189 1256Q4139 1216 4098 1149Q4058 1083 4027 997Q3996 911 3975 820Q3954 729 3943 640Q3933 551 3933 477Q3933 438 3937 390Q3942 343 3953 295Q3965 247 3983 201Q4002 156 4030 121Q4059 86 4098 64Q4137 43 4189 43Q4222 43 4245 56Q4269 69 4283 91Q4298 113 4305 141Q4312 169 4312 198Q4312 243 4299 293Q4287 343 4261 384Q4236 425 4197 452Q4158 479 4105 479Q4090 479 4074 476Q4059 474 4044 469L4038 479Q4075 507 4118 526Q4162 546 4210 546Q4261 546 4301 524Q4341 502 4368 467Q4396 432 4410 386Q4425 341 4425 295Q4425 226 4401 166Q4378 106 4336 61Q4294 17 4235 -8Q4177 -33 4107 -33Q4047 -33 4001 -12Q3956 10 3922 46Q3888 82 3865 129Q3842 177 3828 229Q3814 282 3808 335Q3802 388 3802 436Q3802 524 3817 628Q3833 732 3863 836Q3894 941 3940 1038Q3987 1136 4048 1211Q4110 1286 4187 1331Q4264 1376 4357 1376Q4422 1376 4453 1338Q4484 1301 4484 1239ZM4749 807Q4749 787 4740 767Q4731 747 4716 731Q4702 716 4683 706Q4664 696 4644 696Q4618 696 4602 713Q4587 730 4587 756Q4587 776 4596 795Q4605 815 4619 830Q4634 845 4652 854Q4671 864 4691 864Q4717 864 4733 848Q4749 832 4749 807ZM5023 147L5029 143Q5006 105 4974 73Q4943 42 4905 18Q4868 -5 4825 -18Q4783 -31 4738 -31Q4682 -31 4638 -12Q4595 7 4565 40Q4536 74 4520 119Q4505 165 4505 219Q4505 277 4522 329Q4539 381 4569 426Q4599 472 4639 510Q4680 548 4726 578L4738 569Q4689 511 4658 439Q4628 367 4628 289Q4628 244 4638 202Q4649 161 4671 129Q4694 97 4729 78Q4764 59 4814 59Q4873 59 4926 84Q4980 109 5023 147ZM7086 -444L7090 -464Q7058 -489 7018 -498Q6978 -507 6936 -507Q6787 -507 6674 -462Q6561 -417 6477 -339Q6394 -261 6338 -156Q6282 -50 6247 71Q6213 193 6196 323Q6180 454 6176 583Q6173 712 6179 833Q6186 954 6197 1055Q6139 981 6087 877Q6035 773 5990 654Q5946 535 5908 409Q5870 284 5839 165Q5809 46 5785 -58Q5762 -162 5746 -236Q5744 -244 5741 -257Q5739 -270 5733 -282Q5728 -294 5719 -303Q5710 -311 5697 -311Q5685 -311 5674 -304Q5663 -296 5654 -286Q5645 -275 5638 -263Q5632 -250 5629 -239Q5599 -142 5584 -31Q5570 81 5564 195Q5559 310 5559 423Q5560 536 5560 637Q5560 749 5563 861Q5566 973 5574 1085Q5577 1125 5582 1174Q5588 1223 5605 1265Q5622 1307 5654 1335Q5686 1364 5742 1364Q5756 1364 5765 1357Q5775 1351 5775 1335L5775 1327Q5762 1208 5751 1093Q5740 979 5731 865Q5723 751 5718 635Q5714 520 5714 399Q5714 281 5719 162Q5724 44 5736 -74Q5773 96 5813 258Q5854 420 5906 575Q5958 731 6026 879Q6094 1027 6185 1169Q6193 1182 6205 1199Q6218 1217 6233 1232Q6249 1248 6266 1259Q6283 1270 6301 1270Q6323 1270 6335 1250Q6348 1230 6353 1203Q6359 1177 6360 1150Q6361 1123 6361 1108Q6354 1014 6344 897Q6335 780 6332 652Q6329 524 6335 392Q6342 260 6366 136Q6390 13 6436 -96Q6482 -204 6557 -285Q6633 -366 6741 -413Q6850 -460 7000 -460Q7021 -460 7043 -457Q7066 -453 7086 -444ZM7270 147L7278 143Q7252 105 7215 72Q7179 39 7135 15Q7092 -9 7044 -23Q6997 -37 6949 -37Q6881 -37 6822 -20Q6763 -2 6719 34Q6675 70 6650 124Q6625 179 6625 252Q6625 324 6651 386Q6678 449 6724 495Q6771 542 6834 569Q6897 596 6969 596Q7003 596 7032 586Q7062 577 7084 558Q7106 540 7118 513Q7131 486 7131 451Q7131 409 7114 377Q7097 345 7069 321Q7041 297 7005 281Q6970 265 6931 255Q6893 245 6855 240Q6818 236 6787 236L6763 236Q6776 145 6835 97Q6894 49 6998 49Q7072 49 7142 75Q7213 101 7270 147ZM6760 289L6760 266L6785 266Q6821 266 6859 277Q6897 289 6927 311Q6958 334 6978 367Q6998 400 6998 442Q6998 483 6980 510Q6963 537 6920 537Q6876 537 6845 510Q6815 484 6796 445Q6777 407 6768 364Q6760 322 6760 289ZM8194 592Q8194 537 8183 468Q8172 400 8151 330Q8131 260 8102 194Q8074 128 8038 76Q8003 25 7962 -6Q7922 -37 7878 -37Q7852 -37 7827 -7Q7803 24 7780 73Q7758 122 7739 182Q7720 242 7704 301Q7689 246 7671 186Q7653 126 7627 76Q7601 27 7566 -5Q7531 -37 7483 -37Q7452 -37 7426 -8Q7401 21 7380 65Q7360 110 7343 164Q7327 219 7315 270Q7304 322 7296 364Q7288 406 7284 426Q7283 429 7281 441Q7279 453 7276 466Q7273 479 7268 489Q7264 500 7260 500Q7243 500 7220 489Q7198 479 7184 471L7178 481Q7192 496 7212 512Q7233 529 7256 543Q7280 557 7304 566Q7329 575 7350 575Q7368 575 7382 559Q7397 544 7407 520Q7417 496 7424 466Q7432 437 7436 408Q7441 380 7443 357Q7446 334 7448 322Q7449 314 7453 289Q7457 265 7463 232Q7469 200 7476 164Q7484 129 7493 99Q7502 70 7511 50Q7521 31 7530 31Q7558 31 7582 66Q7606 102 7625 155Q7645 208 7660 268Q7675 328 7684 378Q7674 418 7667 449Q7660 481 7655 500Q7653 504 7653 514Q7653 528 7663 540Q7673 552 7688 561Q7703 570 7719 575Q7735 580 7747 580Q7767 580 7780 561Q7793 543 7801 518Q7809 493 7813 467Q7818 442 7821 428Q7822 421 7827 389Q7833 357 7842 313Q7851 269 7861 219Q7872 170 7883 128Q7895 86 7906 58Q7917 31 7926 31Q7953 31 7976 49Q7999 68 8017 98Q8036 129 8049 168Q8063 208 8072 251Q8082 294 8086 336Q8091 379 8091 416Q8091 447 8087 483Q8083 520 8074 556Q8065 592 8050 625Q8036 659 8016 683Q7996 708 7970 721Q7944 734 7911 730L7909 739Q7935 752 7964 759Q7993 766 8024 766Q8109 766 8151 719Q8194 673 8194 592ZM8837 215Q8837 163 8818 117Q8799 71 8765 37Q8731 3 8685 -17Q8640 -37 8587 -37Q8552 -37 8518 -26Q8484 -15 8455 5Q8427 26 8406 55Q8385 84 8376 119L8399 125Q8425 93 8459 72Q8494 51 8538 51Q8575 51 8606 67Q8638 83 8660 109Q8683 135 8695 169Q8708 204 8708 240Q8708 283 8696 311Q8684 340 8664 359Q8645 379 8621 393Q8597 408 8572 423Q8548 438 8525 457Q8503 476 8487 506Q8486 447 8467 382Q8448 317 8415 256Q8383 195 8341 142Q8299 89 8252 53L8244 67Q8276 101 8300 152Q8324 203 8339 259Q8355 316 8362 373Q8370 430 8370 477Q8370 502 8365 526Q8360 550 8360 573Q8360 601 8376 616Q8393 631 8419 631Q8439 631 8451 622Q8463 613 8473 598Q8483 584 8493 565Q8503 547 8518 527Q8534 508 8557 489Q8581 471 8618 457Q8661 441 8700 420Q8740 400 8770 372Q8801 344 8819 305Q8837 267 8837 215ZM9921 1438L9939 1430Q9935 1416 9931 1394Q9928 1373 9924 1347Q9997 1341 10075 1331Q10154 1321 10229 1305Q10304 1290 10372 1269Q10441 1249 10496 1223L10488 1204Q10378 1218 10268 1223Q10159 1229 10050 1229Q10015 1229 9979 1227Q9944 1225 9908 1223Q9900 1149 9892 1058Q9884 968 9877 868Q9871 768 9866 661Q9862 555 9860 448Q9858 342 9859 239Q9861 137 9867 44Q9873 -48 9884 -127Q9895 -206 9912 -264Q9914 -273 9917 -283Q9921 -292 9921 -301Q9921 -317 9913 -327Q9905 -336 9888 -336Q9866 -336 9844 -324Q9823 -312 9806 -301Q9776 -281 9760 -237Q9744 -193 9737 -142Q9730 -91 9729 -42Q9728 7 9728 39Q9728 115 9731 207Q9735 299 9741 400Q9748 502 9758 609Q9768 717 9782 822Q9796 928 9813 1029Q9831 1130 9853 1219Q9779 1214 9705 1205Q9632 1197 9562 1185Q9493 1173 9429 1158Q9366 1144 9312 1126Q9300 1120 9286 1120Q9257 1120 9257 1149Q9257 1169 9268 1190Q9279 1211 9290 1227Q9307 1251 9340 1269Q9374 1288 9417 1302Q9461 1317 9509 1326Q9558 1336 9604 1342Q9650 1349 9690 1351Q9731 1354 9757 1354Q9787 1354 9820 1352Q9853 1351 9888 1349Q9904 1399 9921 1438ZM10923 295Q10923 225 10900 165Q10877 105 10835 61Q10793 17 10734 -8Q10676 -33 10605 -33Q10542 -33 10491 -10Q10441 14 10405 54Q10369 94 10350 147Q10331 201 10331 262Q10331 313 10345 359Q10360 405 10386 444Q10412 484 10448 517Q10484 551 10526 578L10538 569Q10496 520 10472 461Q10448 402 10448 336Q10448 288 10462 238Q10477 189 10505 148Q10533 107 10575 81Q10617 55 10671 55Q10705 55 10735 69Q10765 83 10787 107Q10810 131 10823 161Q10837 192 10837 225Q10837 257 10827 287Q10818 318 10801 344Q10784 371 10760 392Q10736 414 10708 428Q10692 436 10677 440Q10663 444 10646 449Q10639 450 10631 452Q10623 455 10616 458Q10609 462 10604 468Q10599 474 10599 483Q10599 501 10612 516Q10625 531 10643 542Q10661 554 10681 560Q10701 567 10716 567Q10767 567 10806 541Q10845 515 10871 475Q10897 435 10910 387Q10923 339 10923 295ZM11928 147L11934 143Q11918 110 11894 83Q11870 57 11840 38Q11810 20 11776 10Q11742 0 11705 0Q11627 0 11572 38Q11518 76 11481 137Q11454 107 11421 77Q11389 48 11352 25Q11316 3 11277 -11Q11238 -25 11199 -25Q11152 -25 11115 -6Q11078 13 11052 44Q11026 76 11012 116Q10998 157 10998 201Q10998 267 11027 334Q11057 401 11105 455Q11154 510 11217 544Q11280 578 11348 578Q11368 578 11383 574L11383 616Q11383 645 11385 693Q11387 741 11393 799Q11399 858 11408 922Q11418 987 11433 1050Q11449 1114 11470 1171Q11491 1229 11519 1272Q11547 1316 11583 1342Q11619 1368 11664 1368Q11717 1368 11750 1337Q11783 1306 11802 1260Q11821 1215 11827 1164Q11834 1113 11834 1073Q11834 1021 11824 952Q11814 884 11796 807Q11778 731 11753 651Q11728 571 11699 497Q11670 423 11636 359Q11603 296 11569 252Q11582 213 11600 180Q11619 147 11644 123Q11669 99 11701 85Q11733 72 11774 72Q11868 72 11928 147ZM11524 700Q11524 664 11524 616Q11524 569 11526 516Q11529 463 11535 407Q11542 352 11555 300Q11597 381 11632 477Q11667 574 11692 675Q11718 777 11732 878Q11746 979 11746 1069Q11746 1088 11744 1124Q11742 1160 11733 1195Q11724 1231 11706 1257Q11688 1284 11657 1284Q11633 1284 11614 1261Q11595 1239 11581 1201Q11567 1164 11557 1116Q11548 1068 11541 1016Q11535 964 11531 913Q11528 862 11526 818Q11525 775 11524 743Q11524 712 11524 700ZM11272 84Q11329 84 11377 106Q11426 128 11466 164Q11447 201 11433 243Q11420 286 11410 329Q11401 373 11395 417Q11390 461 11387 502Q11375 515 11357 523Q11339 532 11313 532Q11266 532 11229 506Q11193 481 11168 442Q11143 404 11130 358Q11117 313 11117 272Q11117 234 11125 199Q11134 165 11153 139Q11172 114 11201 99Q11231 84 11272 84ZM12356 524Q12356 513 12348 504Q12340 496 12329 496Q12320 496 12310 501Q12300 507 12287 514Q12275 521 12258 526Q12242 532 12221 532Q12172 532 12133 501Q12095 471 12068 426Q12042 381 12028 330Q12014 279 12014 238Q12014 209 12019 181Q12024 154 12036 131Q12049 109 12071 95Q12093 82 12127 82Q12163 82 12196 95Q12229 109 12258 131Q12259 163 12268 198Q12278 234 12293 268Q12308 303 12327 334Q12347 365 12368 389L12381 381Q12370 347 12365 311Q12360 275 12360 240Q12360 204 12366 172Q12372 140 12387 116Q12402 93 12428 79Q12454 66 12495 66Q12545 66 12587 89Q12629 112 12661 147L12669 143Q12651 108 12622 76Q12593 44 12557 18Q12522 -7 12482 -22Q12442 -37 12403 -37Q12348 -37 12313 -6Q12278 26 12265 74Q12223 32 12171 3Q12120 -25 12063 -25Q12021 -25 11988 -10Q11956 6 11934 32Q11912 58 11900 93Q11889 129 11889 168Q11889 213 11903 260Q11918 308 11943 354Q11969 400 12004 441Q12039 482 12080 513Q12122 544 12168 562Q12214 580 12262 580Q12273 580 12289 577Q12305 575 12320 569Q12335 563 12345 552Q12356 541 12356 524ZM13248 -303Q13248 -360 13237 -417Q13226 -474 13204 -528Q13183 -581 13151 -628Q13119 -674 13078 -708Q13037 -742 12986 -762Q12936 -782 12877 -782Q12822 -782 12773 -760Q12724 -738 12687 -701Q12651 -664 12630 -615Q12609 -565 12609 -510Q12609 -450 12633 -395Q12658 -340 12698 -294Q12738 -248 12788 -213Q12839 -178 12892 -158L12898 -170Q12801 -223 12748 -313Q12695 -403 12695 -514Q12695 -559 12707 -601Q12720 -642 12745 -674Q12770 -706 12807 -726Q12845 -745 12894 -745Q12962 -745 13007 -708Q13052 -671 13079 -616Q13106 -560 13117 -495Q13129 -430 13129 -373Q13129 -312 13119 -253Q13110 -194 13096 -135Q13083 -76 13069 -17Q13055 42 13046 102Q13025 77 13001 54Q12977 32 12949 15Q12922 -1 12891 -11Q12860 -20 12826 -20Q12775 -20 12736 -2Q12698 17 12672 49Q12646 81 12632 123Q12619 165 12619 213Q12619 267 12634 319Q12649 371 12676 417Q12703 463 12740 503Q12777 543 12820 573L12832 567Q12789 505 12764 433Q12740 362 12740 287Q12740 255 12747 218Q12754 181 12769 150Q12785 119 12811 98Q12838 78 12877 78Q12924 78 12965 98Q13006 119 13040 151Q13037 188 13037 225Q13037 276 13044 331Q13051 386 13069 436Q13088 487 13120 528Q13152 570 13203 596L13211 592Q13187 567 13171 536Q13155 506 13145 473Q13136 440 13132 405Q13129 371 13129 338Q13129 246 13147 167Q13166 88 13188 12Q13211 -64 13229 -141Q13248 -217 13248 -303Z" fill="#f4b41a" style=""></path></g></g><g transform="matrix(2,0,0,2,1529,-1533.2)"><g transform="matrix(0.5,0,0,-0.5,0,0)"><path d="M1677 -444L1681 -464Q1649 -489 1609 -498Q1569 -507 1527 -507Q1378 -507 1265 -462Q1152 -417 1068 -339Q985 -261 929 -156Q873 -50 838 71Q804 193 787 323Q771 454 767 583Q764 712 770 833Q777 954 788 1055Q730 981 678 877Q626 773 581 654Q537 535 499 409Q461 284 430 165Q400 46 376 -58Q353 -162 337 -236Q335 -244 332 -257Q330 -270 324 -282Q319 -294 310 -303Q301 -311 288 -311Q276 -311 265 -304Q254 -296 245 -286Q236 -275 229 -263Q223 -250 220 -239Q190 -142 175 -31Q161 81 155 195Q150 310 150 423Q151 536 151 637Q151 749 154 861Q157 973 165 1085Q168 1125 173 1174Q179 1223 196 1265Q213 1307 245 1335Q277 1364 333 1364Q347 1364 356 1357Q366 1351 366 1335L366 1327Q353 1208 342 1093Q331 979 322 865Q314 751 309 635Q305 520 305 399Q305 281 310 162Q315 44 327 -74Q364 96 404 258Q445 420 497 575Q549 731 617 879Q685 1027 776 1169Q784 1182 796 1199Q809 1217 824 1232Q840 1248 857 1259Q874 1270 892 1270Q914 1270 926 1250Q939 1230 944 1203Q950 1177 951 1150Q952 1123 952 1108Q945 1014 935 897Q926 780 923 652Q920 524 926 392Q933 260 957 136Q981 13 1027 -96Q1073 -204 1148 -285Q1224 -366 1332 -413Q1441 -460 1591 -460Q1612 -460 1634 -457Q1657 -453 1677 -444ZM2858 -444L2862 -464Q2830 -489 2790 -498Q2750 -507 2708 -507Q2559 -507 2446 -462Q2333 -417 2249 -339Q2166 -261 2110 -156Q2054 -50 2019 71Q1985 193 1968 323Q1952 454 1948 583Q1945 712 1951 833Q1958 954 1969 1055Q1911 981 1859 877Q1807 773 1762 654Q1718 535 1680 409Q1642 284 1611 165Q1581 46 1557 -58Q1534 -162 1518 -236Q1516 -244 1513 -257Q1511 -270 1505 -282Q1500 -294 1491 -303Q1482 -311 1469 -311Q1457 -311 1446 -304Q1435 -296 1426 -286Q1417 -275 1410 -263Q1404 -250 1401 -239Q1371 -142 1356 -31Q1342 81 1336 195Q1331 310 1331 423Q1332 536 1332 637Q1332 749 1335 861Q1338 973 1346 1085Q1349 1125 1354 1174Q1360 1223 1377 1265Q1394 1307 1426 1335Q1458 1364 1514 1364Q1528 1364 1537 1357Q1547 1351 1547 1335L1547 1327Q1534 1208 1523 1093Q1512 979 1503 865Q1495 751 1490 635Q1486 520 1486 399Q1486 281 1491 162Q1496 44 1508 -74Q1545 96 1585 258Q1626 420 1678 575Q1730 731 1798 879Q1866 1027 1957 1169Q1965 1182 1977 1199Q1990 1217 2005 1232Q2021 1248 2038 1259Q2055 1270 2073 1270Q2095 1270 2107 1250Q2120 1230 2125 1203Q2131 1177 2132 1150Q2133 1123 2133 1108Q2126 1014 2116 897Q2107 780 2104 652Q2101 524 2107 392Q2114 260 2138 136Q2162 13 2208 -96Q2254 -204 2329 -285Q2405 -366 2513 -413Q2622 -460 2772 -460Q2793 -460 2815 -457Q2838 -453 2858 -444ZM2916 1438L2934 1430Q2930 1416 2926 1394Q2923 1373 2919 1347Q2992 1341 3070 1331Q3149 1321 3224 1305Q3299 1290 3367 1269Q3436 1249 3491 1223L3483 1204Q3373 1218 3263 1223Q3154 1229 3045 1229Q3010 1229 2974 1227Q2939 1225 2903 1223Q2895 1149 2887 1058Q2879 968 2872 868Q2866 768 2861 661Q2857 555 2855 448Q2853 342 2854 239Q2856 137 2862 44Q2868 -48 2879 -127Q2890 -206 2907 -264Q2909 -273 2912 -283Q2916 -292 2916 -301Q2916 -317 2908 -327Q2900 -336 2883 -336Q2861 -336 2839 -324Q2818 -312 2801 -301Q2771 -281 2755 -237Q2739 -193 2732 -142Q2725 -91 2724 -42Q2723 7 2723 39Q2723 115 2726 207Q2730 299 2736 400Q2743 502 2753 609Q2763 717 2777 822Q2791 928 2808 1029Q2826 1130 2848 1219Q2774 1214 2700 1205Q2627 1197 2557 1185Q2488 1173 2424 1158Q2361 1144 2307 1126Q2295 1120 2281 1120Q2252 1120 2252 1149Q2252 1169 2263 1190Q2274 1211 2285 1227Q2302 1251 2335 1269Q2369 1288 2412 1302Q2456 1317 2504 1326Q2553 1336 2599 1342Q2645 1349 2685 1351Q2726 1354 2752 1354Q2782 1354 2815 1352Q2848 1351 2883 1349Q2899 1399 2916 1438Z" fill="#f4b41a" style=""></path></g></g></g></svg>